<?xml version="1.0" encoding="UTF-8" standalone="no"?>
<svg width="37px" height="39px" viewBox="0 0 37 39" version="1.1" xmlns="http://www.w3.org/2000/svg" xmlns:xlink="http://www.w3.org/1999/xlink" xmlns:sketch="http://www.bohemiancoding.com/sketch/ns">
    <!-- Generator: Sketch 3.2.2 (9983) - http://www.bohemiancoding.com/sketch -->
    <title>Calendar</title>
    <desc>Created with Sketch.</desc>
    <defs></defs>
    <g id="Icons" stroke="none" stroke-width="1" fill="none" fill-rule="evenodd" sketch:type="MSPage">
        <g id="Calendar" sketch:type="MSLayerGroup" fill="#7F7F7F">
            <path d="M34.72,4.136 L34.72,4.225 L28.404,4.225 L28.404,0.225 L24.404,0.225 L24.404,4.225 L12.404,4.225 L12.404,0.225 L8.404,0.225 L8.404,4.225 L0.088,4.225 L0.088,38.391 L2.088,38.391 L2.088,38.303 L36.72,38.303 L36.72,4.136 L34.72,4.136 L34.72,4.136 Z M2.088,10.225 L34.72,10.225 L34.72,36.303 L2.088,36.303 L2.088,10.225 Z" id="Fill-54" sketch:type="MSShapeGroup"></path>
            <path d="M12.404,13.625 L16.404,13.625 L16.404,17.625 L12.404,17.625 L12.404,13.625 Z" id="Fill-55" sketch:type="MSShapeGroup"></path>
            <path d="M20.404,13.625 L24.404,13.625 L24.404,17.625 L20.404,17.625 L20.404,13.625 Z" id="Fill-56" sketch:type="MSShapeGroup"></path>
            <path d="M28.404,13.625 L32.404,13.625 L32.404,17.625 L28.404,17.625 L28.404,13.625 Z" id="Fill-57" sketch:type="MSShapeGroup"></path>
            <path d="M4.404,13.625 L8.404,13.625 L8.404,17.625 L4.404,17.625 L4.404,13.625 Z" id="Fill-58" sketch:type="MSShapeGroup"></path>
            <path d="M12.404,21.625 L16.404,21.625 L16.404,25.625 L12.404,25.625 L12.404,21.625 Z" id="Fill-59" sketch:type="MSShapeGroup"></path>
            <path d="M20.404,21.625 L24.404,21.625 L24.404,25.625 L20.404,25.625 L20.404,21.625 Z" id="Fill-60" sketch:type="MSShapeGroup"></path>
            <path d="M28.404,21.625 L32.404,21.625 L32.404,25.625 L28.404,25.625 L28.404,21.625 Z" id="Fill-61" sketch:type="MSShapeGroup"></path>
            <path d="M4.404,21.625 L8.404,21.625 L8.404,25.625 L4.404,25.625 L4.404,21.625 Z" id="Fill-62" sketch:type="MSShapeGroup"></path>
            <path d="M12.404,29.625 L16.404,29.625 L16.404,33.625 L12.404,33.625 L12.404,29.625 Z" id="Fill-63" sketch:type="MSShapeGroup"></path>
            <path d="M20.404,29.625 L24.404,29.625 L24.404,33.625 L20.404,33.625 L20.404,29.625 Z" id="Fill-64" sketch:type="MSShapeGroup"></path>
            <path d="M28.404,29.625 L32.404,29.625 L32.404,33.625 L28.404,33.625 L28.404,29.625 Z" id="Fill-65" sketch:type="MSShapeGroup"></path>
            <path d="M4.404,29.625 L8.404,29.625 L8.404,33.625 L4.404,33.625 L4.404,29.625 Z" id="Fill-66" sketch:type="MSShapeGroup"></path>
        </g>
    </g>
</svg>