<?xml version="1.0" encoding="UTF-8" standalone="no"?>
<svg width="45px" height="45px" viewBox="0 0 45 45" version="1.1" xmlns="http://www.w3.org/2000/svg" xmlns:xlink="http://www.w3.org/1999/xlink" xmlns:sketch="http://www.bohemiancoding.com/sketch/ns">
    <!-- Generator: Sketch 3.2.2 (9983) - http://www.bohemiancoding.com/sketch -->
    <title>Info</title>
    <desc>Created with Sketch.</desc>
    <defs></defs>
    <g id="Icons" stroke="none" stroke-width="1" fill="none" fill-rule="evenodd" sketch:type="MSPage">
        <g id="Info" sketch:type="MSLayerGroup" fill="#7F7F7F">
            <path d="M22.42,0.058 C10.269,0.058 0.42,9.908 0.42,22.058 C0.42,34.208 10.269,44.058 22.42,44.058 C34.57,44.058 44.42,34.208 44.42,22.058 C44.42,9.908 34.57,0.058 22.42,0.058 L22.42,0.058 Z M22.42,42.106 C11.348,42.106 2.372,33.13 2.372,22.058 C2.372,10.986 11.348,2.011 22.42,2.011 C33.491,2.011 42.467,10.986 42.467,22.058 C42.467,33.13 33.491,42.106 22.42,42.106 L22.42,42.106 Z" id="Fill-86" sketch:type="MSShapeGroup"></path>
            <path d="M22.799,17.481 L24.45,17.481 L24.45,32.238 L24.95,32.755 L26.868,32.889 L26.868,34.423 L17.913,34.423 L17.913,32.889 L19.764,32.755 L20.247,32.238 L20.247,20.449 L17.996,20.449 L17.996,19.082 L22.799,17.481 L22.799,17.481 Z M22.432,9.693 C23.177,9.693 23.788,9.93 24.266,10.402 C24.744,10.875 24.983,11.472 24.983,12.195 C24.983,12.951 24.747,13.57 24.275,14.054 C23.802,14.538 23.199,14.779 22.465,14.779 C21.754,14.779 21.159,14.54 20.681,14.062 C20.203,13.584 19.964,12.984 19.964,12.261 C19.964,11.528 20.2,10.916 20.673,10.427 C21.145,9.938 21.732,9.693 22.432,9.693 L22.432,9.693 Z" id="Fill-87" sketch:type="MSShapeGroup"></path>
        </g>
    </g>
</svg>