<?xml version="1.0" encoding="UTF-8" standalone="no"?>
<svg width="30px" height="30px" viewBox="0 0 30 30" version="1.1" xmlns="http://www.w3.org/2000/svg" xmlns:xlink="http://www.w3.org/1999/xlink" xmlns:sketch="http://www.bohemiancoding.com/sketch/ns">
    <!-- Generator: Sketch 3.2.2 (9983) - http://www.bohemiancoding.com/sketch -->
    <title>Instagram</title>
    <desc>Created with Sketch.</desc>
    <defs></defs>
    <g id="Icons" stroke="none" stroke-width="1" fill="none" fill-rule="evenodd" sketch:type="MSPage">
        <path d="M24.145,0.521 L6.498,0.521 C3.432,0.521 0.938,3.014 0.938,6.08 L0.938,23.729 C0.938,26.794 3.432,29.288 6.498,29.288 L24.145,29.288 C27.211,29.288 29.705,26.794 29.705,23.729 L29.705,6.08 C29.705,3.014 27.211,0.521 24.145,0.521 L24.145,0.521 Z M25.741,3.837 L26.377,3.834 L26.377,8.71 L21.516,8.726 L21.499,3.85 L25.741,3.837 L25.741,3.837 Z M11.217,11.952 C12.137,10.676 13.632,9.841 15.321,9.841 C17.011,9.841 18.506,10.676 19.426,11.952 C20.027,12.784 20.386,13.801 20.386,14.904 C20.386,17.696 18.113,19.967 15.321,19.967 C12.53,19.967 10.259,17.696 10.259,14.904 C10.259,13.801 10.617,12.784 11.217,11.952 L11.217,11.952 Z M26.902,23.729 C26.902,25.249 25.666,26.485 24.145,26.485 L6.498,26.485 C4.976,26.485 3.741,25.249 3.741,23.729 L3.741,11.952 L8.035,11.952 C7.664,12.864 7.456,13.86 7.456,14.904 C7.456,19.241 10.984,22.771 15.321,22.771 C19.659,22.771 23.187,19.241 23.187,14.904 C23.187,13.86 22.977,12.864 22.607,11.952 L26.902,11.952 L26.902,23.729 L26.902,23.729 Z" id="Instagram" fill="#7F7F7F" sketch:type="MSShapeGroup"></path>
    </g>
</svg>