<?xml version="1.0" encoding="UTF-8" standalone="no"?>
<svg width="30px" height="29px" viewBox="0 0 30 29" version="1.1" xmlns="http://www.w3.org/2000/svg" xmlns:xlink="http://www.w3.org/1999/xlink" xmlns:sketch="http://www.bohemiancoding.com/sketch/ns">
    <!-- Generator: Sketch 3.2.2 (9983) - http://www.bohemiancoding.com/sketch -->
    <title>LinkedIn</title>
    <desc>Created with Sketch.</desc>
    <defs></defs>
    <g id="Icons" stroke="none" stroke-width="1" fill="none" fill-rule="evenodd" sketch:type="MSPage">
        <g id="LinkedIn" sketch:type="MSLayerGroup" fill="#7F7F7F">
            <path d="M0.603,9.615 L6.983,9.615 L6.983,28.775 L0.603,28.775 L0.603,9.615 Z" id="Fill-90" sketch:type="MSShapeGroup"></path>
            <path d="M27.916,11.379 C26.576,9.916 24.803,9.185 22.6,9.185 C21.787,9.185 21.049,9.285 20.385,9.484 C19.722,9.684 19.161,9.965 18.703,10.325 C18.246,10.686 17.882,11.021 17.611,11.331 C17.354,11.624 17.103,11.966 16.857,12.353 L16.857,9.629 L10.496,9.629 L10.515,10.557 C10.529,11.176 10.535,13.083 10.535,16.28 C10.535,19.477 10.522,23.646 10.496,28.789 L16.857,28.789 L16.857,18.097 C16.857,17.44 16.928,16.918 17.07,16.531 C17.341,15.873 17.749,15.323 18.297,14.878 C18.845,14.433 19.525,14.211 20.337,14.211 C21.446,14.211 22.261,14.594 22.783,15.361 C23.305,16.128 23.566,17.188 23.566,18.542 L23.566,28.789 L29.927,28.789 L29.927,17.807 C29.926,14.984 29.257,12.842 27.916,11.379" id="Fill-91" sketch:type="MSShapeGroup"></path>
            <path d="M3.826,0.407 C2.756,0.407 1.89,0.719 1.226,1.345 C0.562,1.97 0.23,2.759 0.23,3.713 C0.23,4.654 0.552,5.44 1.197,6.072 C1.841,6.703 2.692,7.019 3.749,7.019 L3.787,7.019 C4.87,7.019 5.743,6.703 6.407,6.072 C7.071,5.44 7.396,4.654 7.383,3.713 C7.371,2.759 7.042,1.97 6.397,1.345 C5.753,0.719 4.896,0.407 3.826,0.407" id="Fill-92" sketch:type="MSShapeGroup"></path>
        </g>
    </g>
</svg>