<?xml version="1.0" encoding="UTF-8" standalone="no"?>
<svg width="39px" height="29px" viewBox="0 0 39 29" version="1.1" xmlns="http://www.w3.org/2000/svg" xmlns:xlink="http://www.w3.org/1999/xlink" xmlns:sketch="http://www.bohemiancoding.com/sketch/ns">
    <!-- Generator: Sketch 3.2.2 (9983) - http://www.bohemiancoding.com/sketch -->
    <title>List</title>
    <desc>Created with Sketch.</desc>
    <defs></defs>
    <g id="Icons" stroke="none" stroke-width="1" fill="none" fill-rule="evenodd" sketch:type="MSPage">
        <g id="List" sketch:type="MSLayerGroup" fill="#7F7F7F">
            <path d="M8.708,8.259 L38.543,8.259 L38.543,12.259 L8.708,12.259 L8.708,8.259 Z" id="Fill-78" sketch:type="MSShapeGroup"></path>
            <path d="M8.708,0.165 L38.543,0.165 L38.543,4.165 L8.708,4.165 L8.708,0.165 Z" id="Fill-79" sketch:type="MSShapeGroup"></path>
            <path d="M8.708,16.604 L38.543,16.604 L38.543,20.604 L8.708,20.604 L8.708,16.604 Z" id="Fill-80" sketch:type="MSShapeGroup"></path>
            <path d="M8.708,24.623 L38.543,24.623 L38.543,28.623 L8.708,28.623 L8.708,24.623 Z" id="Fill-81" sketch:type="MSShapeGroup"></path>
            <path d="M0.21,8.259 L5.01,8.259 L5.01,12.259 L0.21,12.259 L0.21,8.259 Z" id="Fill-82" sketch:type="MSShapeGroup"></path>
            <path d="M0.21,0.165 L5.01,0.165 L5.01,4.165 L0.21,4.165 L0.21,0.165 Z" id="Fill-83" sketch:type="MSShapeGroup"></path>
            <path d="M0.21,16.604 L5.01,16.604 L5.01,20.604 L0.21,20.604 L0.21,16.604 Z" id="Fill-84" sketch:type="MSShapeGroup"></path>
            <path d="M0.21,24.623 L5.01,24.623 L5.01,28.623 L0.21,28.623 L0.21,24.623 Z" id="Fill-85" sketch:type="MSShapeGroup"></path>
        </g>
    </g>
</svg>