<?xml version="1.0" encoding="UTF-8" standalone="no"?>
<svg width="38px" height="31px" viewBox="0 0 38 31" version="1.1" xmlns="http://www.w3.org/2000/svg" xmlns:xlink="http://www.w3.org/1999/xlink" xmlns:sketch="http://www.bohemiancoding.com/sketch/ns">
    <!-- Generator: Sketch 3.2.2 (9983) - http://www.bohemiancoding.com/sketch -->
    <title>Open Quotes</title>
    <desc>Created with Sketch.</desc>
    <defs></defs>
    <g id="Icons" stroke="none" stroke-width="1" fill="none" fill-rule="evenodd" sketch:type="MSPage">
        <g id="Open-Quotes" sketch:type="MSLayerGroup" fill="#7F7F7F">
            <path d="M0.42,30.542 L17.556,30.542 L17.556,13.405 L3.01,13.405 C3.01,13.366 3.004,13.328 3.004,13.289 C3.004,7.696 7.539,3.162 13.132,3.162 C13.163,3.162 13.194,3.166 13.225,3.167 L13.225,0.582 C13.194,0.582 13.163,0.577 13.132,0.577 C6.111,0.577 0.42,6.269 0.42,13.289 C0.42,13.328 0.425,13.366 0.425,13.405 L0.42,13.405 L0.42,30.542" id="Fill-122" sketch:type="MSShapeGroup"></path>
            <path d="M20.42,30.542 L37.556,30.542 L37.556,13.405 L23.01,13.405 C23.01,13.366 23.004,13.328 23.004,13.289 C23.004,7.696 27.539,3.162 33.132,3.162 C33.163,3.162 33.194,3.166 33.225,3.167 L33.225,0.582 C33.194,0.582 33.163,0.577 33.132,0.577 C26.111,0.577 20.42,6.269 20.42,13.289 C20.42,13.328 20.425,13.366 20.425,13.405 L20.42,13.405 L20.42,30.542" id="Fill-123" sketch:type="MSShapeGroup"></path>
        </g>
    </g>
</svg>