<?xml version="1.0" encoding="UTF-8" standalone="no"?>
<svg width="45px" height="34px" viewBox="0 0 45 34" version="1.1" xmlns="http://www.w3.org/2000/svg" xmlns:xlink="http://www.w3.org/1999/xlink" xmlns:sketch="http://www.bohemiancoding.com/sketch/ns">
    <!-- Generator: Sketch 3.2.2 (9983) - http://www.bohemiancoding.com/sketch -->
    <title>Photo</title>
    <desc>Created with Sketch.</desc>
    <defs></defs>
    <g id="Icons" stroke="none" stroke-width="1" fill="none" fill-rule="evenodd" sketch:type="MSPage">
        <g id="Photo" sketch:type="MSLayerGroup" fill="#7F7F7F">
            <path d="M11.502,9.114 C11.502,10.961 10.005,12.458 8.158,12.458 C6.311,12.458 4.814,10.961 4.814,9.114 C4.814,7.267 6.311,5.77 8.158,5.77 C10.005,5.77 11.502,7.267 11.502,9.114" id="Fill-132" sketch:type="MSShapeGroup"></path>
            <path d="M41.373,8.04 L41.373,30.959 L5.22,30.959 L16.095,17.927 L20.283,22.311 L28.668,11.178 L34.158,15.811 L41.373,8.04" id="Fill-133" sketch:type="MSShapeGroup"></path>
            <path d="M0.057,34 L44.384,34 L44.384,0.755 L0.057,0.755 L0.057,34 Z M2.057,2.79 L42.384,2.79 L42.384,32 L2.057,32 L2.057,2.79 Z" id="Fill-134" sketch:type="MSShapeGroup"></path>
        </g>
    </g>
</svg>