<?xml version="1.0" encoding="UTF-8" standalone="no"?>
<svg width="29px" height="34px" viewBox="0 0 29 34" version="1.1" xmlns="http://www.w3.org/2000/svg" xmlns:xlink="http://www.w3.org/1999/xlink" xmlns:sketch="http://www.bohemiancoding.com/sketch/ns">
    <!-- Generator: Sketch 3.2.2 (9983) - http://www.bohemiancoding.com/sketch -->
    <title>Profile</title>
    <desc>Created with Sketch.</desc>
    <defs></defs>
    <g id="Icons" stroke="none" stroke-width="1" fill="none" fill-rule="evenodd" sketch:type="MSPage">
        <g id="Profile" sketch:type="MSLayerGroup" fill="#7F7F7F">
            <path d="M14.638,33.12 C10.414,33.12 6.19,33.096 1.966,33.139 C1.105,33.148 0.906,32.888 0.901,32.052 C0.884,29.5 0.684,26.964 1.094,24.442 C1.829,19.928 5.524,16.352 10.141,16.016 C13.412,15.777 16.734,15.64 19.999,16.134 C24.67,16.841 28.278,21.051 28.404,25.779 C28.46,27.89 28.384,30.004 28.441,32.114 C28.463,32.92 28.22,33.144 27.417,33.137 C23.158,33.099 18.898,33.12 14.638,33.12" id="Fill-52" sketch:type="MSShapeGroup"></path>
            <path d="M14.617,14.484 C10.823,14.452 7.734,11.292 7.797,7.505 C7.86,3.751 10.973,0.709 14.721,0.74 C18.515,0.771 21.604,3.931 21.541,7.718 C21.478,11.472 18.365,14.515 14.617,14.484" id="Fill-53" sketch:type="MSShapeGroup"></path>
        </g>
    </g>
</svg>