<?xml version="1.0" encoding="UTF-8" standalone="no"?>
<svg width="52px" height="38px" viewBox="0 0 52 38" version="1.1" xmlns="http://www.w3.org/2000/svg" xmlns:xlink="http://www.w3.org/1999/xlink" xmlns:sketch="http://www.bohemiancoding.com/sketch/ns">
    <!-- Generator: Sketch 3.2.2 (9983) - http://www.bohemiancoding.com/sketch -->
    <title>Video Gallery</title>
    <desc>Created with Sketch.</desc>
    <defs></defs>
    <g id="Icons" stroke="none" stroke-width="1" fill="none" fill-rule="evenodd" sketch:type="MSPage">
        <g id="Video-Gallery" sketch:type="MSLayerGroup" fill="#7F7F7F">
            <path d="M36.529,23.588 L25.656,15.571 L25.656,31.605 L36.529,23.588" id="Fill-143" sketch:type="MSShapeGroup"></path>
            <path d="M49.221,10.269 L9.02,10.269 L9.02,37.891 L51.221,37.891 L51.221,10.269 L49.221,10.269 L49.221,10.269 Z M11.02,12.269 L49.221,12.269 L49.221,35.89 L11.02,35.89 L11.02,12.269 Z" id="Fill-144" sketch:type="MSShapeGroup"></path>
            <path d="M42.42,0.77 L0.219,0.77 L0.219,28.391 L2.219,28.391 L2.219,2.77 L42.42,2.77 L42.42,0.77" id="Fill-145" sketch:type="MSShapeGroup"></path>
            <path d="M46.756,5.515 L4.555,5.515 L4.555,33.136 L6.555,33.136 L6.555,7.515 L46.756,7.515 L46.756,5.515" id="Fill-146" sketch:type="MSShapeGroup"></path>
        </g>
    </g>
</svg>