<?xml version="1.0" encoding="UTF-8" standalone="no"?>
<svg width="55px" height="37px" viewBox="0 0 55 37" version="1.1" xmlns="http://www.w3.org/2000/svg" xmlns:xlink="http://www.w3.org/1999/xlink" xmlns:sketch="http://www.bohemiancoding.com/sketch/ns">
    <!-- Generator: Sketch 3.2.2 (9983) - http://www.bohemiancoding.com/sketch -->
    <title>Video</title>
    <desc>Created with Sketch.</desc>
    <defs></defs>
    <g id="Icons" stroke="none" stroke-width="1" fill="none" fill-rule="evenodd" sketch:type="MSPage">
        <g id="Video" sketch:type="MSLayerGroup" fill="#7F7F7F">
            <path d="M16.569,14.731 L16.569,30.697 L27.396,22.714 L16.569,14.731" id="Fill-140" sketch:type="MSShapeGroup"></path>
            <path d="M20.637,2.891 L4.019,2.891 L0.462,0.268 L0.462,7.514 L4.019,4.891 L20.637,4.891 L20.637,2.891" id="Fill-141" sketch:type="MSShapeGroup"></path>
            <path d="M54.601,12.723 L42.023,19.339 L42.023,9.423 L0,9.423 L0,36.985 L42.023,36.985 L42.023,28.598 L54.601,35.051 L54.601,12.723 L54.601,12.723 Z M2,11.448 L40.029,11.448 L40.029,34.988 L2,34.988 L2,11.448 Z M42.023,26.339 L42.023,21.619 L52.616,16.02 L52.63,31.789 L42.023,26.339 L42.023,26.339 Z" id="Fill-142" sketch:type="MSShapeGroup"></path>
        </g>
    </g>
</svg>