<?xml version="1.0" encoding="UTF-8" standalone="no"?>
<svg width="47px" height="45px" viewBox="0 0 47 45" version="1.1" xmlns="http://www.w3.org/2000/svg" xmlns:xlink="http://www.w3.org/1999/xlink" xmlns:sketch="http://www.bohemiancoding.com/sketch/ns">
    <!-- Generator: Sketch 3.2.2 (9983) - http://www.bohemiancoding.com/sketch -->
    <title>Volume Add</title>
    <desc>Created with Sketch.</desc>
    <defs></defs>
    <g id="Icons" stroke="none" stroke-width="1" fill="none" fill-rule="evenodd" sketch:type="MSPage">
        <g id="Volume-Add" sketch:type="MSLayerGroup" fill="#7F7F7F">
            <path d="M0.507,14.617 L10.165,14.573 L22.055,3.501 L22.054,41.751 L10.164,30.678 L0.507,30.5 L0.507,14.617" id="Fill-68" sketch:type="MSShapeGroup"></path>
            <path d="M30.136,8.431 C37.981,16.276 37.981,28.995 30.136,36.84 C30.106,36.87 30.073,36.894 30.043,36.924 L32.349,39.229 C32.379,39.2 32.41,39.173 32.439,39.143 C41.556,30.027 41.556,15.245 32.439,6.128 C32.403,6.091 32.364,6.058 32.327,6.021 L30.021,8.328 C30.058,8.364 30.099,8.395 30.136,8.431" id="Fill-69" sketch:type="MSShapeGroup"></path>
            <path d="M35.1,3.467 C45.686,14.054 45.686,31.218 35.1,41.804 C35.07,41.834 35.039,41.861 35.01,41.89 L37.738,44.618 C37.768,44.589 37.799,44.562 37.828,44.532 C49.921,32.439 49.921,12.832 37.828,0.739 C37.792,0.702 37.753,0.669 37.716,0.633 L34.988,3.361 C35.025,3.397 35.063,3.431 35.1,3.467" id="Fill-70" sketch:type="MSShapeGroup"></path>
            <path d="M25.515,13.052 C30.808,18.345 30.808,26.926 25.515,32.219 C25.485,32.249 25.452,32.274 25.422,32.303 L27.868,34.749 C27.898,34.719 27.931,34.695 27.961,34.665 C34.605,28.022 34.605,17.25 27.961,10.606 C27.924,10.569 27.883,10.539 27.846,10.503 L25.4,12.948 C25.438,12.985 25.478,13.015 25.515,13.052" id="Fill-71" sketch:type="MSShapeGroup"></path>
        </g>
    </g>
</svg>