<?xml version="1.0" encoding="UTF-8" standalone="no"?>
<svg width="40px" height="29px" viewBox="0 0 40 29" version="1.1" xmlns="http://www.w3.org/2000/svg" xmlns:xlink="http://www.w3.org/1999/xlink" xmlns:sketch="http://www.bohemiancoding.com/sketch/ns">
    <!-- Generator: Sketch 3.2.2 (9983) - http://www.bohemiancoding.com/sketch -->
    <title>Youtube</title>
    <desc>Created with Sketch.</desc>
    <defs></defs>
    <g id="Icons" stroke="none" stroke-width="1" fill="none" fill-rule="evenodd" sketch:type="MSPage">
        <path d="M27.561,15.699 L16.608,22.545 C16.408,22.687 16.165,22.758 15.88,22.758 C15.667,22.758 15.445,22.701 15.217,22.587 C14.747,22.331 14.512,21.931 14.512,21.389 L14.512,7.698 C14.512,7.156 14.747,6.756 15.217,6.5 C15.702,6.243 16.166,6.257 16.608,6.542 L27.561,13.388 C27.989,13.63 28.203,14.016 28.203,14.544 C28.203,15.071 27.989,15.457 27.561,15.699 L27.561,15.699 Z M39.135,11.334 C39.121,10.564 39.06,9.591 38.954,8.414 C38.847,7.237 38.693,6.185 38.494,5.258 C38.266,4.218 37.77,3.34 37.007,2.627 C36.244,1.914 35.356,1.5 34.343,1.386 C31.177,1.03 26.392,0.851 19.988,0.851 C13.584,0.851 8.799,1.03 5.633,1.386 C4.62,1.5 3.736,1.914 2.98,2.627 C2.224,3.34 1.732,4.217 1.504,5.258 C1.29,6.186 1.129,7.238 1.022,8.414 C0.916,9.591 0.855,10.564 0.841,11.334 C0.826,12.105 0.819,13.174 0.819,14.544 C0.819,15.913 0.826,16.982 0.841,17.753 C0.855,18.523 0.916,19.496 1.022,20.673 C1.129,21.85 1.283,22.902 1.483,23.829 C1.711,24.87 2.206,25.747 2.969,26.46 C3.732,27.173 4.62,27.587 5.633,27.701 C8.799,28.057 13.584,28.236 19.988,28.236 C26.392,28.236 31.177,28.057 34.343,27.701 C35.356,27.587 36.24,27.173 36.996,26.46 C37.752,25.747 38.244,24.869 38.472,23.829 C38.686,22.902 38.847,21.849 38.954,20.673 C39.06,19.496 39.121,18.523 39.135,17.753 C39.15,16.982 39.157,15.913 39.157,14.544 C39.157,13.174 39.15,12.105 39.135,11.334 L39.135,11.334 Z" id="Youtube" fill="#7F7F7F" sketch:type="MSShapeGroup"></path>
    </g>
</svg>