<?xml version="1.0" encoding="UTF-8" standalone="no"?>
<svg width="356px" height="95px" viewBox="0 0 356 95" version="1.1" xmlns="http://www.w3.org/2000/svg" xmlns:xlink="http://www.w3.org/1999/xlink" xmlns:sketch="http://www.bohemiancoding.com/sketch/ns">
    <!-- Generator: Sketch 3.2.2 (9983) - http://www.bohemiancoding.com/sketch -->
    <title>AJMN_Double_Horizontal</title>
    <desc>Created with Sketch.</desc>
    <defs></defs>
    <g id="Symbols" stroke="none" stroke-width="1" fill="none" fill-rule="evenodd" sketch:type="MSPage">
        <g id="Logos" sketch:type="MSLayerGroup" transform="translate(-362.000000, -28.000000)">
            <g id="AJMN_Double_Horizontal" transform="translate(362.000000, 28.000000)" sketch:type="MSShapeGroup">
                <path d="M335.500119,82.9894564 C335.358461,83.0543074 335.310287,83.2928922 335.401388,83.6281553 C335.500119,83.9473851 336.035751,85.3437163 336.035751,85.3437163 C336.414222,86.3942552 337.054547,87.6099128 337.916423,88.2340143 C338.835772,88.8944897 339.311068,88.6623661 339.496846,88.5910539 C339.633257,88.5142377 340.224217,88.1464295 340.013398,87.1908938 C339.788033,86.1781648 339.664499,85.9053597 339.480152,85.5358764 C339.300813,85.1661537 339.056846,84.9369017 338.912087,84.9993597 C338.825518,85.0146751 338.897539,85.3475452 338.897539,85.5566957 C338.889669,85.9249826 338.763751,86.2023344 338.459924,86.3375404 C338.191154,86.455038 337.530081,86.6960158 337.021875,85.7785293 C336.604293,85.0398019 336.236076,84.0639255 336.081778,83.6662044 C335.955382,83.3539144 335.76722,82.9765341 335.570472,82.9765341 C335.549962,82.9765341 335.533745,82.9829952 335.500119,82.9894564 L335.500119,82.9894564 Z M321.027816,85.7086529 L324.102808,88.2988653 L327.092661,84.6176719 L324.020054,82.0205198 L321.027816,85.7086529 L321.027816,85.7086529 Z M321.716076,79.2728463 L324.784152,81.8621014 L327.784499,78.1957448 L324.706168,75.5878241 L321.716076,79.2728463 L321.716076,79.2728463 Z M341.352954,70.2011204 L344.962623,71.9523376 L346.957051,67.6209588 L343.352629,65.8843391 L341.352954,70.2011204 L341.352954,70.2011204 Z M322.656173,67.1648479 C324.185322,70.8051204 326.499556,73.9629588 329.158873,76.2861094 C329.435751,74.3798241 329.735285,73.0368574 330.016694,72.0789287 C327.303241,70.1001347 325.359133,67.9607686 324.113062,65.8218811 L322.656173,67.1648479 L322.656173,67.1648479 Z M329.512304,62.5238114 L333.123881,64.2599525 L335.120694,59.9331204 L331.512455,58.1965008 L329.512304,62.5238114 L329.512304,62.5238114 Z M312.076379,45.2832488 C312.076379,45.2832488 309.823913,46.9131395 308.916726,49.0716498 C308.360824,50.392122 308.398027,51.8207591 308.71187,52.511626 C309.03239,53.2012964 309.782656,53.8608146 310.759957,53.0670475 C311.444163,52.511626 311.743696,51.7341315 311.892271,51.0693487 C311.983371,50.6749778 312.014136,50.426103 312.014136,50.2322678 C312.014136,49.9893756 311.935198,49.7847718 311.708401,49.8393328 C311.056867,50.059252 311.444163,50.9532868 310.979122,51.3859461 C310.625691,51.6053867 309.707772,51.4869319 309.526764,50.5646593 C309.348379,49.6411902 310.044748,48.4540095 310.676726,47.6679002 C311.309897,46.8796371 312.422894,45.8477639 312.422894,45.8477639 C312.422894,45.8477639 313.216802,45.1784342 312.947794,44.8474786 C312.935631,44.8283344 312.906537,44.8199588 312.874341,44.8199588 C312.642537,44.8199588 312.076379,45.2832488 312.076379,45.2832488 L312.076379,45.2832488 Z M334.268835,42.8897433 C333.996249,43.1852821 332.713214,44.6194231 331.479545,45.9973281 C330.376325,47.2249509 329.323664,48.3972948 329.092813,48.6555024 C328.565767,49.2525626 328.288889,49.8393328 328.359003,50.1559303 L328.677138,51.7592583 C328.762515,51.4613265 329.099014,50.9173914 329.470569,50.4959794 C329.735285,50.2002013 331.01832,48.7593597 332.25652,47.3941379 C333.353778,46.164122 334.407631,44.9975214 334.641344,44.7249556 C335.172206,44.144168 335.447176,43.5502187 335.374439,43.2398431 L335.048195,41.6245499 C334.971642,41.9296609 334.641344,42.4676133 334.268835,42.8897433 L334.268835,42.8897433 Z M304.195252,66.2306101 C304.637398,64.8062805 305.434883,63.5281648 306.823328,62.727458 C309.100835,61.641981 309.993474,64.4183708 309.993474,64.4183708 C309.834645,66.2978542 308.433322,67.2844992 306.873409,67.2844992 C305.959783,67.2844992 304.984867,66.9363138 304.195252,66.2306101 L304.195252,66.2306101 Z M321.147534,21.1371284 C319.602168,21.1792456 318.385192,22.5030681 318.428358,24.0788764 C318.477724,25.662103 319.76529,26.9141347 321.313041,26.8634025 C322.16013,26.839233 322.891317,26.4266751 323.395707,25.8262647 L323.453897,25.7551918 C323.784434,28.0355071 322.713886,29.8573185 320.221745,31.9655753 C317.672607,34.1547163 311.708401,37.0095975 307.468423,40.4313867 C301.50064,45.2425674 300.091209,50.4797068 299.728,54.7194326 C299.572509,56.6118384 299.843187,59.0993899 300.349962,61.1566751 C300.984087,63.7449731 301.903198,65.7259208 301.903198,65.7259208 C301.903198,65.7259208 301.951133,65.8084802 302.023631,65.9501474 C301.872195,68.7564501 302.14955,73.6573693 303.701355,77.3598605 C305.786883,82.1346672 309.534634,86.043916 314.91122,84.8945452 C320.337886,83.5944136 320.944585,74.6021363 321.563209,68.0368669 C321.724423,66.9614406 321.887068,66.770477 322.209973,66.494561 C323.081864,65.7407575 325.197919,63.7155388 326.205984,62.8145642 C326.829854,62.253878 327.371447,61.6946276 327.72297,60.9791125 C328.171317,60.1099651 327.934027,58.9519794 327.934027,58.9519794 L327.325897,54.625626 C327.175415,55.2406339 326.437789,56.1014057 325.400152,57.1646276 C324.319588,58.2785816 321.438482,60.7970032 321.17639,61.0741157 C320.916206,61.3426133 319.978016,62.0358732 319.577127,65.3384897 C318.535675,74.3195198 316.800238,78.5582884 313.683989,79.9914723 C312.861702,80.3863217 311.939729,80.5703455 310.914732,80.5961902 C305.203556,80.5397147 303.701355,73.4494152 303.727827,69.5633788 C303.732119,69.3353233 303.736173,69.1003281 303.748813,68.8873487 C305.075729,70.7077242 307.034146,72.5135024 309.451881,72.1377971 C313.307664,71.5388225 312.107382,64.9110951 311.547187,63.3738146 C311.002016,61.8274406 309.505778,57.2134453 306.273388,57.4419794 C303.982526,57.6003978 302.915556,60.3358669 302.430005,62.6520777 C301.988336,60.8216513 301.752715,58.6755848 301.895805,56.9990301 C302.236358,52.9892742 303.583783,47.9806688 309.311653,43.0479223 C313.392325,39.5371125 318.015068,37.0294596 320.585908,34.9604485 C322.221897,33.6507448 323.238786,32.1802298 323.809236,30.8004105 C323.648022,32.1376339 323.323686,33.5875689 322.693854,35.2772853 C320.321192,41.6424976 313.117832,52.1521933 313.02077,67.005233 C313.02077,71.5701712 313.44193,75.5179477 314.154992,78.8937908 C314.545626,78.6217036 314.91122,78.2656212 315.258688,77.8387052 C314.758352,75.4236624 314.469073,72.7501727 314.469073,69.8993597 C314.469073,55.0800618 321.622829,44.5840063 323.955902,38.2324342 C325.177171,34.8869826 325.207935,32.4477702 325.207935,30.0403851 C325.207935,27.085954 324.561171,24.0022995 323.95781,22.8002821 C323.305084,21.647561 322.495198,21.1371284 321.284184,21.1371284 L321.147534,21.1371284 L321.147534,21.1371284 Z M328.171317,0.817458003 C326.735415,1.84310935 325.537041,4.17008875 325.545388,7.72373376 C325.55755,9.90856735 326.156379,12.5231886 327.809539,15.4512964 C325.590461,18.5337544 325.183133,21.3757132 326.125138,24.0915594 C326.840585,26.1562631 327.204271,26.6925404 327.530753,27.9309319 C328.348748,31.0741727 327.441561,34.8460618 325.009041,40.6615959 C323.036314,45.4026609 320.471675,50.3605341 320.471675,56.398859 C320.484314,57.7844216 320.59807,59.1314564 320.790287,60.4548003 C321.018992,60.2262662 321.507165,59.7598653 322.104087,59.2027686 C321.810515,54.4724723 323.660184,49.7139382 325.933398,45.44071 C329.239718,39.1973027 329.646569,32.8466878 329.010298,29.3708162 C331.33097,31.897374 335.244705,35.6740491 337.530081,39.5474025 C338.300618,40.8525594 338.763751,42.0864041 338.87703,43.342504 C338.984824,46.4046212 338.040195,48.5985483 336.195057,50.7525119 C334.634428,52.5683407 335.174591,54.1731046 335.240173,54.487309 C335.358461,55.0042029 335.996401,56.9832361 336.443079,58.2785816 C338.174461,54.8290333 342.95174,52.8861347 345.117637,50.0188098 C345.613442,53.550439 343.003729,56.9095309 341.067252,59.1608906 C340.604596,59.6689303 340.100206,60.1891743 339.528325,60.7512964 C335.860228,64.3188209 333.453225,66.7719128 332.17806,69.0505531 C331.851577,69.5554818 331.322862,70.6890586 331.058146,71.5617956 C330.684206,72.6532552 330.206764,74.505458 329.807306,77.7669144 C329.503957,79.6913867 329.161257,81.9891712 329.049648,83.0129081 C328.801626,85.3437163 328.110981,89.0426181 325.301182,90.0960285 C325.146407,90.1608796 324.997355,90.1972536 324.840434,90.2293201 L324.840434,90.2424818 C322.16013,90.8376276 319.415913,88.5532441 317.420054,84.4451347 C317.008911,84.7634073 316.560564,85.0460238 316.072867,85.2659429 C318.77535,91.766122 322.841713,94.7533376 326.403924,94.7533376 C329.103068,94.7533376 331.235577,93.3689715 331.917875,89.3312171 C332.272737,87.2952298 332.520997,85.0398019 332.743978,82.8497036 C332.853919,81.7967718 333.364033,75.8455531 334.306515,73.6870428 C335.467686,71.2667353 338.013247,68.9246799 341.805355,64.9503407 C344.14606,62.4814548 345.423371,60.4263233 346.088499,58.7713059 C348.295415,54.6584105 345.561453,44.8776307 345.030829,43.1192345 C345.014612,43.0562979 345.008173,43.0421791 344.972878,43.0421791 C344.918981,43.0421791 344.902287,43.0562979 344.861268,43.1280887 C344.857214,43.1448399 344.848867,43.1572837 344.84052,43.1694881 C343.864889,44.7886101 342.121583,46.2648685 340.501095,47.4723899 C341.412813,44.925252 341.166699,42.9890539 340.803014,41.3601204 L340.803014,41.3476767 C340.780119,41.2543487 340.757463,41.1574311 340.7329,41.0648209 L340.728607,41.0748716 C339.088087,34.5852219 332.564163,28.8072583 329.623913,25.477122 C325.801041,21.1624945 327.102916,18.3827544 328.51187,16.6167005 C328.776585,17.0125071 329.049648,17.4334406 329.359436,17.8560491 C334.558591,25.0286688 344.350916,36.4103835 349.484011,47.2529493 C350.787794,49.9893756 351.785604,52.6815309 352.333637,55.2466165 C354.355729,66.4754168 346.652509,77.8937448 335.104,74.6832599 L335.099469,74.6832599 C335.025062,74.6657908 334.944694,74.6430571 334.876965,74.6193661 C334.564314,75.6177369 334.268835,77.2102964 333.977648,79.3855578 C335.72787,80.1407971 337.624759,80.5961902 339.466081,80.6775531 L339.467989,80.6809033 C339.602255,80.6828177 339.738905,80.6868859 339.872932,80.6916719 C349.361908,80.7969651 356.788249,73.568588 355.422222,58.398233 C355.422222,58.398233 354.852249,52.0873423 351.643469,45.44071 C346.509897,33.7646529 337.012575,22.2120761 331.184065,14.7496609 C329.334396,12.3769746 328.247631,10.3263899 327.700314,8.5538748 C326.60878,5.10456577 327.303241,2.43155468 328.702656,1.2616038 C329.004098,1.00315689 329.380423,0.713839937 329.723122,0.541063391 C329.931794,0.429069731 329.851425,0.179955626 329.702374,0.152675119 C329.67161,0.152675119 329.623913,0.144299525 329.57407,0.144299525 C329.372076,0.144299525 328.973095,0.23714897 328.171317,0.817458003 L328.171317,0.817458003 Z M317.508054,26.0564739 C315.95935,26.1052916 314.737604,27.4221743 314.789593,29.0183233 C314.828466,30.592935 316.12271,31.8291727 317.675469,31.7894485 C319.228228,31.7470919 320.445442,30.4153724 320.395837,28.838607 C320.352672,27.2886434 319.107794,26.0564739 317.600824,26.0564739 L317.508054,26.0564739 L317.508054,26.0564739 Z" id="Fill-1" fill="#CE9825"></path>
                <path d="M73.2887371,53.6203154 C73.2887371,53.0306735 73.4599675,52.4551506 73.8026667,51.8935071 C74.1456043,51.332103 74.6805203,50.8266957 75.4081301,50.3772853 C76.1355014,49.9281141 77.0693984,49.5421189 78.2100596,49.2188209 C79.3500054,48.8962409 80.7105474,48.6787147 82.2919241,48.5662425 L82.2919241,55.1575959 L85.3139729,55.1575959 L85.3139729,57.4529873 L80.6130081,57.4529873 C80.45871,57.3548732 80.3294526,57.2285214 80.2247588,57.0736926 C80.1195881,56.9195816 80.032065,56.7652314 79.9621897,56.6106418 C79.8920759,56.4421727 79.836271,56.2667639 79.7942981,56.0841759 C79.7241843,56.3509984 79.5844336,56.5826434 79.3745691,56.7791109 C79.1928455,56.94758 78.9302764,57.1021696 78.5878157,57.242401 C78.2446396,57.3828716 77.7798374,57.4529873 77.1919783,57.4529873 C75.7651382,57.4529873 74.7575501,57.1126989 74.1699295,56.4316434 C73.5823089,55.7508273 73.2887371,54.8137179 73.2887371,53.6203154 L73.2887371,53.6203154 Z M75.0306125,45.5127401 C75.0306125,45.0635689 75.1880108,44.6806846 75.5025691,44.3650444 C75.8173659,44.0491648 76.1984607,43.891225 76.6463306,43.891225 C77.0798916,43.891225 77.4471545,44.0491648 77.7481192,44.3650444 C78.0488455,44.6806846 78.1995664,45.0635689 78.1995664,45.5127401 C78.1995664,45.9480317 78.0488455,46.3163185 77.7481192,46.6183185 C77.4471545,46.9203185 77.0798916,47.0710792 76.6463306,47.0710792 C76.1984607,47.0710792 75.8173659,46.9203185 75.5025691,46.6183185 C75.1880108,46.3163185 75.0306125,45.9480317 75.0306125,45.5127401 L75.0306125,45.5127401 Z M75.8278591,53.2412599 L75.8278591,53.914897 C75.8278591,54.3224295 75.9466233,54.63113 76.1846287,54.841477 C76.4223957,55.0520634 76.8070678,55.1575959 77.3388835,55.1575959 L79.7523252,55.1575959 L79.7523252,50.9669271 C79.1647046,51.0793994 78.6295501,51.2196307 78.1468618,51.3880998 C77.6641734,51.5565689 77.2551762,51.7389176 76.9191545,51.9356244 C76.5833713,52.1323312 76.3212791,52.3429176 76.1324011,52.5671442 C75.943523,52.7920887 75.8416911,53.016794 75.8278591,53.2412599 L75.8278591,53.2412599 Z M79.1856911,45.5127401 C79.1856911,45.0635689 79.3430894,44.6806846 79.6581247,44.3650444 C79.9726829,44.0491648 80.3537778,43.891225 80.8018862,43.891225 C81.2352087,43.891225 81.6024715,44.0491648 81.9036748,44.3650444 C82.2044011,44.6806846 82.354645,45.0635689 82.354645,45.5127401 C82.354645,45.9480317 82.2044011,46.3163185 81.9036748,46.6183185 C81.6024715,46.9203185 81.2352087,47.0710792 80.8018862,47.0710792 C80.3537778,47.0710792 79.9726829,46.9203185 79.6581247,46.6183185 C79.3430894,46.3163185 79.1856911,45.9480317 79.1856911,45.5127401 L79.1856911,45.5127401 Z" id="Fill-2" fill="#1F2750"></path>
                <path d="M84.7888347,55.1575959 L92.3859295,55.1575959 L92.3859295,57.4529873 L84.7888347,57.4529873 L84.7888347,55.1575959 Z" id="Fill-3" fill="#1F2750"></path>
                <path d="M91.8615068,55.1575959 L95.8069593,55.1575959 L95.8069593,48.9871759 L98.472,48.229065 L98.472,55.1575959 L101.850818,55.1575959 L101.850818,57.4529873 L91.8615068,57.4529873 L91.8615068,55.1575959 L91.8615068,55.1575959 Z M93.3935176,60.8855452 C93.3935176,60.4358954 93.550916,60.053729 93.8654743,59.7376101 C94.180271,59.4219699 94.5613659,59.2640301 95.0092358,59.2640301 C95.4427967,59.2640301 95.8100596,59.4219699 96.1110244,59.7376101 C96.4117507,60.053729 96.5624715,60.4358954 96.5624715,60.8855452 C96.5624715,61.3205975 96.4117507,61.6891236 96.1110244,61.9908843 C95.8100596,62.2928843 95.4427967,62.4438843 95.0092358,62.4438843 C94.5613659,62.4438843 94.180271,62.2928843 93.8654743,61.9908843 C93.550916,61.6891236 93.3935176,61.3205975 93.3935176,60.8855452 L93.3935176,60.8855452 Z M97.5485962,60.8855452 C97.5485962,60.4358954 97.7062331,60.053729 98.0207913,59.7376101 C98.3355881,59.4219699 98.7166829,59.2640301 99.1647913,59.2640301 C99.5981138,59.2640301 99.9653767,59.4219699 100.266341,59.7376101 C100.567306,60.053729 100.71755,60.4358954 100.71755,60.8855452 C100.71755,61.3205975 100.567306,61.6891236 100.266341,61.9908843 C99.9653767,62.2928843 99.5981138,62.4438843 99.1647913,62.4438843 C98.7166829,62.4438843 98.3355881,62.2928843 98.0207913,61.9908843 C97.7062331,61.6891236 97.5485962,61.3205975 97.5485962,60.8855452 L97.5485962,60.8855452 Z" id="Fill-4" fill="#1F2750"></path>
                <path d="M111.567545,55.6208859 C111.539165,55.9860618 111.378667,56.4493518 111.084856,57.0107559 C110.5249,58.1615626 109.993561,58.7375642 109.489886,58.7375642 C109.307924,58.7375642 109.11213,58.6882678 108.902266,58.5899144 C108.482537,58.4214453 107.912087,58.1615626 107.19187,57.8109842 C106.470938,57.4599271 105.600238,57.0246355 104.579057,56.5053487 C104.341051,56.9262821 104.067989,57.2002837 103.760585,57.3266355 C103.522341,57.41087 103.130992,57.4529873 102.585106,57.4529873 L101.221225,57.4529873 L101.221225,55.1575959 L102.773984,55.1575959 C103.193951,54.1888986 103.634667,53.3080254 104.09613,52.5147369 C104.55807,51.7216878 105.016195,51.0478114 105.470981,50.4928685 C105.92529,49.9386434 106.366244,49.5067021 106.793127,49.1977623 C107.219772,48.8893011 107.614699,48.7347116 107.978862,48.7347116 C108.902266,48.7347116 109.671371,49.3947084 110.287133,50.7139842 C110.468856,51.1073978 110.651057,51.6022758 110.83278,52.1986181 C111.014504,52.7956783 111.210537,53.5147829 111.42064,54.3573677 C111.546558,54.93313 111.595447,55.3543027 111.567545,55.6208859 L111.567545,55.6208859 Z M109.217062,55.9786434 C109.049171,54.7153645 108.828813,53.6937813 108.555989,52.914851 C108.283165,52.1356815 107.943566,51.7460967 107.538146,51.7460967 C107.398157,51.7460967 107.153236,51.907626 106.803621,52.230206 C106.593756,52.4410317 106.373398,52.7325024 106.142547,53.1043788 C105.911696,53.4764945 105.719241,53.8098431 105.56542,54.1044247 C106.152802,54.5540745 106.761648,54.9364802 107.391241,55.2523597 C108.020596,55.568 108.629442,55.8104136 109.217062,55.9786434 L109.217062,55.9786434 Z" id="Fill-5" fill="#1F2750"></path>
                <path d="M114.568607,46.7549604 C114.680217,46.6848447 114.858602,46.6008494 115.103762,46.502496 C115.348206,46.4043819 115.596943,46.2990887 115.84878,46.1863772 C116.142591,46.0602647 116.457149,45.9339128 116.793171,45.8073217 C117.212661,46.3548463 117.621897,47.0533708 118.020878,47.9026561 C118.419621,48.75242 118.783068,49.6297036 119.111935,50.5349857 C119.440564,51.4405071 119.731274,52.3075008 119.983111,53.1357274 C120.23471,53.9644326 120.430743,54.63113 120.570732,55.1365372 C120.878374,55.09442 121.126873,55.0032456 121.315751,54.8625357 C121.504629,54.7225436 121.651534,54.5574247 121.756466,54.367897 C121.861398,54.1783693 121.931274,53.9713724 121.966331,53.7466672 C122.001149,53.5222013 122.018797,53.297496 122.018797,53.0727908 L122.018797,43.9754596 L124.704824,43.1749921 L124.704824,53.8938384 C124.704824,54.3434881 124.820488,54.6663074 125.051339,54.8625357 C125.281951,55.0592425 125.586493,55.1575959 125.964249,55.1575959 L127.643165,55.1575959 L127.643165,57.4529873 L126.698775,57.4529873 C126.02697,57.4529873 125.453182,57.3266355 124.977886,57.0736926 C124.502114,56.8212282 124.145344,56.48429 123.907577,56.0631173 C123.585388,56.4704105 123.134417,56.8037591 122.553951,57.0634025 C121.973008,57.3232853 121.193171,57.4529873 120.213724,57.4529873 L112.847718,57.4529873 L113.582244,55.1575959 L117.968173,55.1575959 C117.856325,54.6663074 117.709182,54.0938954 117.527696,53.441317 C117.345734,52.7882599 117.118461,52.0935642 116.845398,51.3565119 C116.572813,50.6194596 116.247523,49.8579984 115.869767,49.0716498 C115.492011,48.2855404 115.057973,47.5130713 114.568607,46.7549604" id="Fill-6" fill="#1F2750"></path>
                <path d="M127.013333,55.1575959 L130.370927,55.1575959 C130.090949,54.7926593 129.905886,54.3468384 129.815024,53.8203724 C129.723686,53.2939065 129.678612,52.7358526 129.678612,52.1462108 C129.678612,51.0090444 130.136737,50.1071125 131.053225,49.4401759 C131.969236,48.7734786 133.232,48.4185927 134.841041,48.3767147 C135.428661,48.3487163 136.093073,48.3838938 136.834992,48.4820079 C137.576195,48.5803613 138.283057,48.6925943 138.954385,48.8187068 L138.954385,51.1775135 C138.744759,51.1215166 138.482428,51.0583407 138.167631,50.9879857 C137.852596,50.91787 137.509897,50.8546941 137.139295,50.798458 C136.768217,50.7422219 136.383783,50.6967544 135.984802,50.6615769 C135.58606,50.6266387 135.19781,50.6089303 134.820054,50.6089303 C134.512173,50.6089303 134.225279,50.6299889 133.959848,50.6721062 C133.69394,50.7139842 133.459274,50.798458 133.256802,50.9248098 C133.053615,51.0509223 132.896217,51.2268098 132.784369,51.4510365 C132.67252,51.675981 132.616477,51.9638621 132.616477,52.3146799 C132.616477,53.0727908 132.690168,53.672962 132.837073,54.114954 C132.98374,54.5574247 133.176195,54.9048922 133.414201,55.1575959 L139.038569,55.1575959 L139.038569,57.4529873 L127.013333,57.4529873 L127.013333,55.1575959" id="Fill-7" fill="#1F2750"></path>
                <path d="M141.304867,43.3645198 C141.654482,43.6878177 142.070873,44.0352853 142.553561,44.4071616 C143.036488,44.7792773 143.53277,45.1791521 144.043599,45.607504 C144.55419,46.0358558 145.06478,46.4919667 145.57561,46.9763154 C146.086201,47.460664 146.55148,47.9766006 146.971447,48.5241252 C147.068986,48.4118922 147.118114,47.9976593 147.118114,47.2816656 L147.118114,43.933103 L149.699447,43.0909968 L149.699447,47.3446022 C149.699447,48.4681284 149.279718,49.5138811 148.44026,50.4825784 C149.601431,52.2797417 150.182374,53.8801981 150.182374,55.2839477 L150.182374,57.4529873 L140.654287,57.4529873 L140.654287,54.6100713 C141.171794,54.2728938 141.67213,53.9187258 142.154818,53.5463708 C142.637507,53.1747338 143.088715,52.8095578 143.508444,52.451561 C143.928173,52.0935642 144.309268,51.7494469 144.652206,51.4196878 C144.995144,51.0899287 145.285138,50.8056371 145.523144,50.566813 C145.131317,50.0192884 144.697518,49.5138811 144.221984,49.0505911 C143.746211,48.5873011 143.263523,48.1591886 142.773919,47.7660143 C142.284076,47.3730792 141.805203,47.0079033 141.336585,46.6709651 C140.867491,46.3340269 140.451339,46.0179081 140.087653,45.7233265 L141.304867,43.3645198 L141.304867,43.3645198 Z M147.642775,63.5178748 L142.606027,65.0127987 L142.606027,63.6861046 L143.991371,63.2651712 C143.837073,63.2366941 143.700661,63.1704073 143.582136,63.0651141 C143.462894,62.9598209 143.361539,62.8334691 143.277593,62.6860586 C143.193648,62.5384089 143.127111,62.3804691 143.078222,62.2122393 C143.029095,62.0437702 143.00477,61.8963597 143.00477,61.7697686 C143.00477,61.334477 143.102547,60.9448922 143.29858,60.6012536 C143.494612,60.256897 143.742634,59.9623154 144.043599,59.7165515 C144.344325,59.4710269 144.669615,59.2850887 145.019469,59.1584976 C145.369084,59.0323851 145.697951,58.9689699 146.005832,58.9689699 C146.327545,58.9689699 146.635425,59.0218558 146.929236,59.127149 C147.223046,59.2324422 147.509702,59.4671981 147.78968,59.8326133 C147.649691,59.9448463 147.478222,60.0850777 147.275512,60.2537861 C147.072564,60.4222552 146.83122,60.6254231 146.55148,60.8642472 C146.299642,60.597664 145.984846,60.4641331 145.607089,60.4641331 C145.243165,60.4641331 144.98465,60.5624865 144.830591,60.7591933 C144.676531,60.9554216 144.59974,61.1518891 144.59974,61.3488352 C144.59974,61.5309445 144.652206,61.6996529 144.757138,61.8542425 C144.86207,62.0085927 144.991328,62.1385341 145.145388,62.2438273 C145.299209,62.3488811 145.460423,62.433355 145.628076,62.4965309 C145.795967,62.5594675 145.942873,62.5982345 146.068791,62.6123534 L147.642775,62.1488241 L147.642775,63.5178748 L147.642775,63.5178748 Z M148.062504,55.1575959 C148.020531,54.9891268 147.960911,54.7890697 147.884119,54.5574247 C147.807328,54.3257797 147.71265,54.0802552 147.600802,53.8203724 C147.488715,53.560729 147.362797,53.2939065 147.223046,53.0201442 C147.083057,52.7461426 146.929236,52.4903281 146.761344,52.251504 C146.467534,52.5463249 146.187556,52.8167369 145.921886,53.0622615 C145.655978,53.3080254 145.379577,53.5463708 145.09316,53.7782552 C144.806266,54.0099002 144.498146,54.2346054 144.169756,54.4518922 C143.84065,54.669897 143.473388,54.9048922 143.067729,55.1575959 L148.062504,55.1575959 L148.062504,55.1575959 Z" id="Fill-8" fill="#1F2750"></path>
                <path d="M154.988033,43.1749921 L154.988033,57.4529873 L152.322753,57.4529873 L152.322753,43.933103 L154.988033,43.1749921" id="Fill-9" fill="#1F2750"></path>
                <path d="M171.79794,54.0414881 C171.79794,54.7014849 171.67226,55.2595388 171.420184,55.7156498 C171.168585,56.172 170.818732,56.5472266 170.3711,56.8422868 C169.92323,57.1371078 169.388076,57.3512837 168.765398,57.484336 C168.142721,57.6178669 167.4609,57.684393 166.71922,57.684393 C166.229615,57.684393 165.722602,57.6422758 165.197702,57.5582805 C164.673041,57.4738067 164.197268,57.3196957 163.770862,57.0947512 C163.34374,56.8705246 162.990786,56.5685246 162.711046,56.1894691 C162.431068,55.8104136 162.291317,55.326065 162.291317,54.7364231 C162.291317,53.641374 162.518352,52.6552076 162.973138,51.7776846 C163.427924,50.900401 164.082081,50.145401 164.93561,49.5138811 L164.201084,49.1977623 L165.229182,47.53413 C166.23677,47.7449556 167.145864,48.0500666 167.957659,48.4501807 C168.768737,48.8502948 169.45819,49.3279429 170.024824,49.8824073 C170.591458,50.4371109 171.028596,51.0652805 171.336477,51.7671553 C171.644119,52.4692694 171.79794,53.2273803 171.79794,54.0414881 L171.79794,54.0414881 Z M162.605875,45.4282662 C162.605875,44.9230983 162.78426,44.4911569 163.14103,44.1331601 C163.497799,43.7754025 163.928022,43.5964041 164.431696,43.5964041 C164.683534,43.5964041 164.917962,43.6457005 165.134981,43.7435753 C165.351762,43.8419287 165.54064,43.97187 165.701615,44.1331601 C165.862352,44.2949287 165.988271,44.488046 166.079371,44.7122726 C166.170233,44.9372171 166.215783,45.1758019 166.215783,45.4282662 C166.215783,45.9200333 166.040737,46.341206 165.691122,46.6920238 C165.341268,47.0428415 164.921301,47.2184897 164.431696,47.2184897 C164.180098,47.2184897 163.942092,47.1730222 163.718157,47.0816086 C163.494461,46.9904342 163.301767,46.8638431 163.14103,46.7025531 C162.980293,46.5412631 162.850797,46.3517353 162.75278,46.1339699 C162.654764,45.9162044 162.605875,45.6812092 162.605875,45.4282662 L162.605875,45.4282662 Z M168.881062,53.9783122 C168.881062,53.8098431 168.852921,53.5643185 168.796878,53.2412599 C168.741073,52.9184406 168.635902,52.5850919 168.48232,52.2409746 C168.328022,51.8970967 168.121734,51.5776276 167.862981,51.2825674 C167.603989,50.9879857 167.272022,50.7773994 166.866125,50.6510475 C166.614526,50.7915182 166.383675,50.991336 166.173572,51.2509794 C165.963707,51.5111014 165.781984,51.7812742 165.628163,52.0619762 C165.474103,52.3429176 165.351762,52.6236197 165.2609,52.9043217 C165.169561,53.1850238 165.124488,53.4169081 165.124488,53.5992567 C165.124488,53.8801981 165.173377,54.1187829 165.271393,54.3152504 C165.368932,54.5119572 165.491751,54.6730079 165.638656,54.799599 C165.785322,54.9259509 165.953214,55.0173645 166.142092,55.0733613 C166.33097,55.1293582 166.523187,55.1575959 166.71922,55.1575959 C167.334743,55.1575959 167.849149,55.062832 168.261962,54.8733043 C168.674537,54.6837765 168.881062,54.3856054 168.881062,53.9783122 L168.881062,53.9783122 Z M166.887111,45.4282662 C166.887111,44.9230983 167.065496,44.4911569 167.422504,44.1331601 C167.779274,43.7754025 168.209257,43.5964041 168.713171,43.5964041 C168.96477,43.5964041 169.199198,43.6457005 169.416217,43.7435753 C169.632759,43.8419287 169.821637,43.97187 169.982851,44.1331601 C170.143588,44.2949287 170.269268,44.488046 170.360607,44.7122726 C170.451469,44.9372171 170.497019,45.1758019 170.497019,45.4282662 C170.497019,45.9200333 170.321973,46.341206 169.972358,46.6920238 C169.622266,47.0428415 169.202537,47.2184897 168.713171,47.2184897 C168.461333,47.2184897 168.223089,47.1730222 167.999393,47.0816086 C167.775696,46.9904342 167.583003,46.8638431 167.422504,46.7025531 C167.261528,46.5412631 167.132033,46.3517353 167.034255,46.1339699 C166.936,45.9162044 166.887111,45.6812092 166.887111,45.4282662 L166.887111,45.4282662 Z" id="Fill-10" fill="#1F2750"></path>
                <path d="M177.170472,48.1029525 C177.380336,49.2401189 177.534157,50.3772853 177.632173,51.5144517 C177.729951,52.6516181 177.800065,53.711729 177.842276,54.6943059 L180.171534,54.6943059 L180.171534,57.4529873 L177.863263,57.4529873 C177.848954,57.6915721 177.810558,57.9794532 177.747599,58.3163914 C177.684878,58.6533296 177.576369,58.9972076 177.422309,59.3480254 C177.268488,59.6988431 177.051469,60.0501395 176.771967,60.4011965 C176.491751,60.7520143 176.124488,61.0678938 175.670179,61.3488352 C175.215154,61.6295372 174.659014,61.8542425 174.001518,62.0227116 C173.344022,62.1909414 172.553453,62.2754152 171.630049,62.2754152 L171.147599,60.548607 C171.87497,60.5342488 172.518634,60.4011965 173.078114,60.1484929 C173.315881,60.0357813 173.550547,59.8955499 173.781398,59.7270808 C174.012011,59.5586117 174.218537,59.3480254 174.40026,59.095561 C174.581984,58.8428574 174.728889,58.5406181 174.841214,58.1900396 C174.953062,57.8389826 175.008867,57.4319287 175.008867,56.9686387 C175.008867,55.6912409 174.977388,54.3784263 174.914667,53.0306735 C174.851707,51.6829208 174.645182,50.3562266 174.295566,49.0505911 L177.170472,48.1029525" id="Fill-11" fill="#1F2750"></path>
                <path d="M179.646873,54.6943059 L187.244206,54.6943059 L187.244206,57.452748 L179.646873,57.452748 L179.646873,54.6943059 Z" id="Fill-12" fill="#1F2750"></path>
                <path d="M194.694157,48.0605959 L194.694157,57.4529873 L186.719545,57.4529873 L186.719545,54.6943059 L191.462244,54.6943059 L191.462244,48.9871759 L194.694157,48.0605959 L194.694157,48.0605959 Z M187.160022,61.0961315 C187.160022,60.5907242 187.338407,60.1590222 187.695176,59.8010254 C188.051946,59.4430285 188.482168,59.2640301 188.985843,59.2640301 C189.23768,59.2640301 189.47187,59.3130872 189.688889,59.4114406 C189.905669,59.5093154 190.094547,59.6392567 190.255523,59.8010254 C190.41626,59.9623154 190.542179,60.1551933 190.633279,60.3801379 C190.723902,60.6043645 190.769691,60.8434279 190.769691,61.0961315 C190.769691,61.58742 190.594645,62.0085927 190.24503,62.3594105 C189.895176,62.7102282 189.475447,62.8861157 188.985843,62.8861157 C188.734005,62.8861157 188.496,62.8401696 188.272304,62.7489952 C188.048369,62.6578209 187.855913,62.5312298 187.695176,62.3699398 C187.534201,62.2084105 187.404705,62.0188827 187.306927,61.8013566 C187.208911,61.5835911 187.160022,61.3488352 187.160022,61.0961315 L187.160022,61.0961315 Z M191.441257,61.0961315 C191.441257,60.5907242 191.619642,60.1590222 191.976412,59.8010254 C192.33342,59.4430285 192.763404,59.2640301 193.267317,59.2640301 C193.518916,59.2640301 193.753106,59.3130872 193.970125,59.4114406 C194.186905,59.5093154 194.375783,59.6392567 194.536759,59.8010254 C194.697496,59.9623154 194.823415,60.1551933 194.914515,60.3801379 C195.005377,60.6043645 195.050927,60.8434279 195.050927,61.0961315 C195.050927,61.58742 194.875881,62.0085927 194.526266,62.3594105 C194.176412,62.7102282 193.756683,62.8861157 193.267317,62.8861157 C193.015241,62.8861157 192.777236,62.8401696 192.553539,62.7489952 C192.329604,62.6578209 192.137149,62.5312298 191.976412,62.3699398 C191.815436,62.2084105 191.68594,62.0188827 191.588401,61.8013566 C191.490146,61.5835911 191.441257,61.3488352 191.441257,61.0961315 L191.441257,61.0961315 Z" id="Fill-13" fill="#1F2750"></path>
                <path d="M200.863696,48.1029525 C201.073799,49.2401189 201.227382,50.3772853 201.325637,51.5144517 C201.423415,52.6516181 201.493528,53.711729 201.535501,54.6943059 L203.864759,54.6943059 L203.864759,57.4529873 L201.556249,57.4529873 C201.542417,57.6915721 201.504022,57.9794532 201.441062,58.3163914 C201.377864,58.6533296 201.269355,58.9972076 201.115772,59.3480254 C200.961474,59.6988431 200.744694,60.0501395 200.464954,60.4011965 C200.184976,60.7520143 199.817713,61.0678938 199.363165,61.3488352 C198.908618,61.6295372 198.352477,61.8542425 197.694981,62.0227116 C197.037008,62.1909414 196.246916,62.2754152 195.323512,62.2754152 L194.840585,60.548607 C195.568434,60.5342488 196.211621,60.4011965 196.771577,60.1484929 C197.009106,60.0357813 197.243534,59.8955499 197.474385,59.7270808 C197.705474,59.5586117 197.911523,59.3480254 198.093724,59.095561 C198.275447,58.8428574 198.422114,58.5406181 198.534201,58.1900396 C198.646049,57.8389826 198.702331,57.4319287 198.702331,56.9686387 C198.702331,55.6912409 198.670851,54.3784263 198.607653,53.0306735 C198.544694,51.6829208 198.338168,50.3562266 197.988553,49.0505911 L200.863696,48.1029525 L200.863696,48.1029525 Z M197.212293,45.4493249 C197.212293,44.9441569 197.390678,44.5122155 197.747447,44.154458 C198.104217,43.7964612 198.534201,43.6174628 199.038114,43.6174628 C199.289713,43.6174628 199.523902,43.6667591 199.740921,43.7646339 C199.957702,43.8629873 200.14658,43.993168 200.307556,44.154458 C200.468293,44.3159873 200.594211,44.5091046 200.68555,44.7335705 C200.776412,44.9582758 200.821724,45.1968605 200.821724,45.4493249 C200.821724,45.9410919 200.646678,46.3622647 200.297062,46.7130824 C199.947209,47.0639002 199.527718,47.2395483 199.038114,47.2395483 C198.786038,47.2395483 198.548033,47.1940808 198.324575,47.1024279 C198.100401,47.0114929 197.908184,46.885141 197.747447,46.7236117 C197.586233,46.5623217 197.456737,46.372794 197.359198,46.1550285 C197.261182,45.9372631 197.212293,45.7022678 197.212293,45.4493249 L197.212293,45.4493249 Z" id="Fill-14" fill="#1F2750"></path>
                <path d="M217.611122,57.4529873 L203.235404,57.4529873 L203.235404,54.6943059 L212.217604,54.6943059 C211.85368,53.9644326 211.542222,53.3537322 211.283707,52.8622044 C211.024715,52.370916 210.790526,51.9813312 210.580661,51.6934501 C210.370797,51.4058082 210.167848,51.2019223 209.972054,51.0825103 C209.776022,50.9635769 209.552325,50.9035119 209.300488,50.9035119 C208.936564,50.9035119 208.621528,50.9951648 208.356098,51.1775135 C208.09019,51.3601014 207.782309,51.6690412 207.432694,52.1040935 L205.606873,50.4825784 C205.830331,50.145401 206.103393,49.8297607 206.425344,49.5349398 C206.747057,49.2401189 207.100011,48.984065 207.48516,48.7662995 C207.869832,48.5485341 208.268575,48.3767147 208.681388,48.2501236 C209.093962,48.1240111 209.510352,48.0605959 209.930081,48.0605959 C210.391783,48.0605959 210.818428,48.1627781 211.210255,48.3661854 C211.601604,48.5695927 211.993669,48.8962409 212.385496,49.345412 C212.777084,49.7945832 213.20039,50.3808748 213.655176,51.1035689 C214.109724,51.826981 214.631046,52.7009144 215.218667,53.7253693 C215.414461,54.0625468 215.645312,54.3083106 215.91122,54.4624216 C216.176889,54.6172504 216.463783,54.6943059 216.771664,54.6943059 L217.611122,54.6943059 L217.611122,57.4529873 L217.611122,57.4529873 Z M208.46103,60.9908384 C208.46103,60.4851918 208.639415,60.053729 208.996184,59.6957322 C209.352954,59.337496 209.783176,59.1584976 210.286851,59.1584976 C210.538688,59.1584976 210.772878,59.207794 210.989897,59.3061474 C211.206678,59.4042615 211.395556,59.5342029 211.556531,59.6957322 C211.717268,59.8567829 211.843187,60.0501395 211.934287,60.2746054 C212.025149,60.4993106 212.070699,60.7381347 212.070699,60.9908384 C212.070699,61.4818875 211.895653,61.9030602 211.546038,62.2543566 C211.196184,62.6051743 210.776217,62.7808225 210.286851,62.7808225 C210.035014,62.7808225 209.797008,62.7351157 209.573312,62.6439414 C209.349377,62.5522884 209.156683,62.4261759 208.996184,62.2648859 C208.835209,62.1033566 208.705713,61.9138288 208.607935,61.6963027 C208.509919,61.4785372 208.46103,61.2433027 208.46103,60.9908384 L208.46103,60.9908384 Z" id="Fill-15" fill="#1F2750"></path>
                <path d="M223.004401,43.006523 L223.004401,57.4529873 L217.002276,57.4529873 L217.002276,54.6943059 L219.772488,54.6943059 L219.772488,43.933103 L223.004401,43.006523" id="Fill-16" fill="#1F2750"></path>
                <path d="M228.691729,43.006523 L228.691729,57.4529873 L225.459816,57.4529873 L225.459816,43.933103 L228.691729,43.006523" id="Fill-17" fill="#1F2750"></path>
                <path d="M237.08607,53.6203154 C237.08607,53.0306735 237.257301,52.4551506 237.6,51.8935071 C237.942938,51.332103 238.477854,50.8266957 239.205463,50.3772853 C239.932835,49.9281141 240.866732,49.5421189 242.007393,49.2188209 C243.147339,48.8962409 244.507881,48.6787147 246.089257,48.5662425 L246.089257,55.1575959 L249.111306,55.1575959 L249.111306,57.4529873 L244.410341,57.4529873 C244.256043,57.3548732 244.126786,57.2285214 244.022092,57.0736926 C243.916921,56.9195816 243.829398,56.7652314 243.759523,56.6106418 C243.689409,56.4421727 243.633604,56.2667639 243.591631,56.0841759 C243.521518,56.3509984 243.381767,56.5826434 243.171902,56.7791109 C242.990179,56.94758 242.72761,57.1021696 242.385149,57.242401 C242.041973,57.3828716 241.577171,57.4529873 240.989312,57.4529873 C239.562472,57.4529873 238.554883,57.1126989 237.967263,56.4316434 C237.379642,55.7508273 237.08607,54.8137179 237.08607,53.6203154 L237.08607,53.6203154 Z M238.827707,45.5127401 C238.827707,45.0635689 238.985344,44.6806846 239.299902,44.3650444 C239.614699,44.0491648 239.995794,43.891225 240.443664,43.891225 C240.877225,43.891225 241.244488,44.0491648 241.545453,44.3650444 C241.846179,44.6806846 241.9969,45.0635689 241.9969,45.5127401 C241.9969,45.9480317 241.846179,46.3163185 241.545453,46.6183185 C241.244488,46.9203185 240.877225,47.0710792 240.443664,47.0710792 C239.995794,47.0710792 239.614699,46.9203185 239.299902,46.6183185 C238.985344,46.3163185 238.827707,45.9480317 238.827707,45.5127401 L238.827707,45.5127401 Z M239.625192,53.2412599 L239.625192,53.914897 C239.625192,54.3224295 239.743957,54.63113 239.981962,54.841477 C240.219729,55.0520634 240.604401,55.1575959 241.136217,55.1575959 L243.549659,55.1575959 L243.549659,50.9669271 C242.962038,51.0793994 242.426883,51.2196307 241.944195,51.3880998 C241.461507,51.5565689 241.052509,51.7389176 240.716488,51.9356244 C240.380705,52.1323312 240.118612,52.3429176 239.929734,52.5671442 C239.740856,52.7920887 239.639024,53.016794 239.625192,53.2412599 L239.625192,53.2412599 Z M242.983024,45.5127401 C242.983024,45.0635689 243.140423,44.6806846 243.455458,44.3650444 C243.770016,44.0491648 244.151111,43.891225 244.59922,43.891225 C245.032542,43.891225 245.399805,44.0491648 245.701008,44.3650444 C246.001734,44.6806846 246.151978,45.0635689 246.151978,45.5127401 C246.151978,45.9480317 246.001734,46.3163185 245.701008,46.6183185 C245.399805,46.9203185 245.032542,47.0710792 244.59922,47.0710792 C244.151111,47.0710792 243.770016,46.9203185 243.455458,46.6183185 C243.140423,46.3163185 242.983024,45.9480317 242.983024,45.5127401 L242.983024,45.5127401 Z" id="Fill-18" fill="#1F2750"></path>
                <path d="M248.586168,55.1575959 L256.182786,55.1575959 L256.182786,57.4529873 L248.586168,57.4529873 L248.586168,55.1575959 Z" id="Fill-19" fill="#1F2750"></path>
                <path d="M268.502309,57.4529873 L255.973398,57.4529873 L255.973398,55.1575959 L262.982873,55.1575959 L262.982873,54.5258368 C262.982873,54.1187829 262.870786,53.680141 262.647089,53.2096719 C262.423154,52.7394422 262.111935,52.2797417 261.713192,51.8300919 C261.314688,51.3809208 260.8351,50.949458 260.275621,50.5349857 C259.715902,50.1212314 259.100379,49.7663455 258.428813,49.4717639 L258.596705,45.8496783 L266.718461,43.0909968 L266.046894,45.8917956 L260.758309,47.5130713 C261.34593,47.9203645 261.908986,48.3977734 262.447957,48.9452979 C262.985973,49.4928225 263.465561,50.0544659 263.88529,50.6299889 C264.332921,51.2615087 264.710678,51.9040365 265.018558,52.5566149 C265.326201,53.2096719 265.48026,53.8660792 265.48026,54.5258368 L265.48026,55.1575959 L268.502309,55.1575959 L268.502309,57.4529873" id="Fill-20" fill="#1F2750"></path>
                <path d="M268.187035,55.1575959 L272.132488,55.1575959 L272.132488,48.9871759 L274.798005,48.229065 L274.798005,55.1575959 L278.176824,55.1575959 L278.176824,57.4529873 L268.187035,57.4529873 L268.187035,55.1575959 L268.187035,55.1575959 Z M271.838678,60.8642472 C271.838678,60.4148368 271.996314,60.0326704 272.310873,59.7165515 C272.625669,59.4009113 273.006764,59.2429715 273.454634,59.2429715 C273.888195,59.2429715 274.255458,59.4009113 274.556423,59.7165515 C274.857149,60.0326704 275.007631,60.4148368 275.007631,60.8642472 C275.007631,61.2995388 274.857149,61.668065 274.556423,61.970065 C274.255458,62.2715864 273.888195,62.4228257 273.454634,62.4228257 C273.006764,62.4228257 272.625669,62.2715864 272.310873,61.970065 C271.996314,61.668065 271.838678,61.2995388 271.838678,60.8642472 L271.838678,60.8642472 Z" id="Fill-21" fill="#1F2750"></path>
                <path d="M277.546992,55.1575959 L280.989008,55.1575959 L280.989008,49.0505911 L283.507144,48.1661284 L283.507144,55.1575959 L286.277355,55.1575959 L286.277355,49.0505911 L288.795729,48.1661284 L288.795729,55.1575959 L291.544954,55.1575959 L291.544954,49.0505911 L294.063328,48.1661284 L294.063328,57.4529873 L277.546992,57.4529873 L277.546992,55.1575959 L277.546992,55.1575959 Z M283.758981,45.5127401 C283.758981,45.0635689 283.916379,44.6806846 284.231176,44.3650444 C284.546211,44.0491648 284.927068,43.891225 285.374938,43.891225 C285.808499,43.891225 286.175762,44.0491648 286.476726,44.3650444 C286.777453,44.6806846 286.927935,45.0635689 286.927935,45.5127401 C286.927935,45.9480317 286.777453,46.3163185 286.476726,46.6183185 C286.175762,46.9203185 285.808499,47.0710792 285.374938,47.0710792 C284.927068,47.0710792 284.546211,46.9203185 284.231176,46.6183185 C283.916379,46.3163185 283.758981,45.9480317 283.758981,45.5127401 L283.758981,45.5127401 Z M285.752694,41.5113597 C285.752694,41.0624279 285.910092,40.6797829 286.225127,40.363664 C286.539686,40.0480238 286.92078,39.890084 287.368889,39.890084 C287.802211,39.890084 288.169474,40.0480238 288.470678,40.363664 C288.771165,40.6797829 288.921648,41.0624279 288.921648,41.5113597 C288.921648,41.9468906 288.771165,42.3190063 288.470678,42.6274675 C288.169474,42.9366466 287.802211,43.0909968 287.368889,43.0909968 C286.92078,43.0909968 286.539686,42.9366466 286.225127,42.6274675 C285.910092,42.3190063 285.752694,41.9468906 285.752694,41.5113597 L285.752694,41.5113597 Z M287.914537,45.5127401 C287.914537,45.0635689 288.071696,44.6806846 288.386493,44.3650444 C288.70129,44.0491648 289.082385,43.891225 289.530255,43.891225 C289.963816,43.891225 290.331079,44.0491648 290.632043,44.3650444 C290.93277,44.6806846 291.083491,45.0635689 291.083491,45.5127401 C291.083491,45.9480317 290.93277,46.3163185 290.632043,46.6183185 C290.331079,46.9203185 289.963816,47.0710792 289.530255,47.0710792 C289.082385,47.0710792 288.70129,46.9203185 288.386493,46.6183185 C288.071696,46.3163185 287.914537,45.9480317 287.914537,45.5127401 L287.914537,45.5127401 Z" id="Fill-22" fill="#1F2750"></path>
                <path d="M24.3600217,77.2406878 L19.8789377,77.2406878 L19.8789377,66.1530761 L16.2065474,66.1530761 L16.2065474,80.4293962 L24.3600217,80.4293962 L24.3600217,77.2406878 L24.3600217,77.2406878 Z M27.6088672,79.5241141 C27.6088672,81.7048796 26.8187751,82.4993645 25.0706992,81.9992219 C24.9662439,81.9784025 24.8806287,81.9451395 24.7790352,81.9001506 L23.916206,85.0000777 C24.1108076,85.0969952 24.3044553,85.1745293 24.5126504,85.2578067 C28.5856911,86.7816862 31.260271,84.5186006 31.260271,80.5507227 L31.260271,66.1530761 L27.6088672,66.1530761 L27.6088672,79.5241141 L27.6088672,79.5241141 Z M66.4068509,74.924477 L71.1736369,74.924477 L71.1736369,71.8728891 L66.4068509,71.8728891 L66.4068509,69.2812409 L71.9413117,69.2812409 L71.9413117,66.1530761 L62.7726179,66.1530761 L62.7726179,80.4293962 L72.4266233,80.4293962 L72.4266233,77.3959952 L66.4068509,77.3959952 L66.4068509,74.924477 L66.4068509,74.924477 Z M78.9984824,74.924477 L83.7571599,74.924477 L83.7571599,71.8728891 L78.9984824,71.8728891 L78.9984824,69.2812409 L84.5296043,69.2812409 L84.5296043,66.1530761 L75.3578103,66.1530761 L75.3578103,80.4293962 L85.0182547,80.4293962 L85.0182547,77.3959952 L78.9984824,77.3959952 L78.9984824,74.924477 L78.9984824,74.924477 Z M4.89342005,66.1530761 L0.0493658537,80.4293962 L3.70386992,80.4293962 L4.52711111,77.8138177 L9.20518157,77.8138177 L9.99837398,80.4293962 L13.8784824,80.4293962 L8.93331165,66.1530761 L4.89342005,66.1530761 L4.89342005,66.1530761 Z M5.55687805,74.5578653 L6.90525745,70.0295404 L8.25339837,74.5578653 L5.55687805,74.5578653 L5.55687805,74.5578653 Z M38.2716531,66.1530761 L33.4254526,80.4293962 L37.0818645,80.4293962 L37.9067751,77.8138177 L42.5826992,77.8138177 L43.3789919,80.4293962 L47.262439,80.4293962 L42.3117832,66.1530761 L38.2716531,66.1530761 L38.2716531,66.1530761 Z M38.9410732,74.5578653 L40.2808672,70.0295404 L41.630916,74.5578653 L38.9410732,74.5578653 L38.9410732,74.5578653 Z M109.025084,66.1530761 L104.990916,66.1530761 L100.137084,80.4293962 L103.804705,80.4293962 L104.621745,77.8138177 L109.302201,77.8138177 L110.097301,80.4293962 L113.976932,80.4293962 L109.025084,66.1530761 L109.025084,66.1530761 Z M105.691577,74.5578653 L107.036856,70.0295404 L108.385474,74.5578653 L105.691577,74.5578653 L105.691577,74.5578653 Z M97.1675014,75.2547147 C96.6328238,73.9885642 96.4408455,73.7315531 95.9300163,73.4917718 C96.0156314,73.4709525 96.1012466,73.4307496 96.177561,73.3912647 C97.7653767,72.6556482 98.5330515,70.8137353 97.9273062,68.7686545 C97.4353171,67.0846815 96.1391653,66.1530761 93.6854201,66.1530761 L87.9244011,66.1530761 L87.9244011,80.4293962 L91.5774743,80.4293962 L91.5774743,75.0927068 L92.4150244,75.0927068 C93.0050298,75.0927068 93.361561,75.3511537 93.6694417,76.109504 L93.8635664,76.5620254 L93.9694526,76.8195151 L95.3490732,80.4293962 L99.1392737,80.4293962 L97.3625799,75.7515071 C97.2960434,75.5698764 97.2452466,75.416962 97.1675014,75.2547147 L97.1675014,75.2547147 Z M94.1092033,71.5251823 C93.9012466,71.7807575 93.6029051,71.8977765 92.9053442,71.9650206 L91.5028293,71.9650206 L91.5028293,69.2812409 L92.5907859,69.2812409 C92.676878,69.2812409 92.7624932,69.3008637 92.8509702,69.3008637 C93.4094959,69.3180935 93.6377236,69.3867734 93.8852683,69.5411236 C94.5007913,69.897206 94.6388726,70.8704501 94.1092033,71.5251823 L94.1092033,71.5251823 Z M59.5619295,69.795981 L59.5619295,66.1530761 L49.7512412,66.1530761 L49.7512412,69.2812409 L54.7953821,69.2812409 L49.5974201,76.7788336 L49.5974201,80.4293962 L59.6702005,80.4293962 L59.6702005,77.2768225 L54.3782764,77.2768225 L59.5619295,69.795981 L59.5619295,69.795981 Z" id="Fill-23" fill="#1F2750"></path>
                <path d="M125.34181,66.0942076 L128.683425,75.9522821 L128.723491,75.9522821 L131.884813,66.0942076 L136.306753,66.0942076 L136.306753,80.4293962 L133.36555,80.4293962 L133.36555,70.2702789 L133.325485,70.2702789 L129.823848,80.4293962 L127.402775,80.4293962 L123.901138,70.3707861 L123.861312,70.3707861 L123.861312,80.4293962 L120.91987,80.4293962 L120.91987,66.0942076 L125.34181,66.0942076" id="Fill-24" fill="#1F2750"></path>
                <path d="M149.752629,66.0942076 L149.752629,68.7444849 L142.209192,68.7444849 L142.209192,71.8161743 L149.132098,71.8161743 L149.132098,74.2656767 L142.209192,74.2656767 L142.209192,77.7793582 L149.91265,77.7793582 L149.91265,80.4293962 L139.067902,80.4293962 L139.067902,66.0942076 L149.752629,66.0942076" id="Fill-25" fill="#1F2750"></path>
                <path d="M158.196098,66.0942076 C159.116401,66.0942076 159.973268,66.2416181 160.767176,66.5357211 C161.560607,66.830542 162.247675,67.2722948 162.828141,67.8609794 C163.40813,68.4501426 163.861724,69.1862377 164.188683,70.069504 C164.515404,70.9530095 164.679003,71.9901474 164.679003,73.1813962 C164.679003,74.2254739 164.545214,75.1893851 164.278591,76.0726513 C164.011729,76.9559176 163.608217,77.7190539 163.068293,78.3613423 C162.527892,79.00387 161.854179,79.5092773 161.047154,79.8773249 C160.239892,80.245851 159.289539,80.4293962 158.196098,80.4293962 L152.033236,80.4293962 L152.033236,66.0942076 L158.196098,66.0942076 L158.196098,66.0942076 Z M157.975978,77.7793582 C158.429333,77.7793582 158.869333,77.7058922 159.296455,77.5584818 C159.7231,77.4113106 160.10348,77.1667433 160.437117,76.8257369 C160.770276,76.484252 161.037138,76.0393883 161.237463,75.4904279 C161.43755,74.9417068 161.537474,74.2726165 161.537474,73.4826783 C161.537474,72.7597448 161.467599,72.1074057 161.327371,71.5251823 C161.187382,70.9429588 160.957247,70.4444913 160.636965,70.0293011 C160.31716,69.6145895 159.893377,69.2965563 159.366569,69.0756799 C158.839285,68.8548035 158.189182,68.7444849 157.415783,68.7444849 L155.174764,68.7444849 L155.174764,77.7793582 L157.975978,77.7793582 L157.975978,77.7793582 Z" id="Fill-26" fill="#1F2750"></path>
                <path d="M166.859686,66.0942076 L170.000976,66.0942076 L170.000976,80.4293962 L166.859686,80.4293962 L166.859686,66.0942076 Z" id="Fill-27" fill="#1F2750"></path>
                <path d="M179.885355,66.0942076 L185.227599,80.4293962 L181.966352,80.4293962 L180.885789,77.2370983 L175.543306,77.2370983 L174.422916,80.4293962 L171.261593,80.4293962 L176.663696,66.0942076 L179.885355,66.0942076 L179.885355,66.0942076 Z M180.065409,74.888103 L178.264629,69.6277512 L178.224564,69.6277512 L176.363924,74.888103 L180.065409,74.888103 L180.065409,74.888103 Z" id="Fill-28" fill="#1F2750"></path>
                <path d="M195.151805,66.0942076 L201.11458,75.7113043 L201.154407,75.7113043 L201.154407,66.0942076 L204.095848,66.0942076 L204.095848,80.4293962 L200.95432,80.4293962 L195.011816,70.8326403 L194.971751,70.8326403 L194.971751,80.4293962 L192.030547,80.4293962 L192.030547,66.0942076 L195.151805,66.0942076" id="Fill-29" fill="#1F2750"></path>
                <path d="M217.541724,66.0942076 L217.541724,68.7444849 L209.998287,68.7444849 L209.998287,71.8161743 L216.921192,71.8161743 L216.921192,74.2656767 L209.998287,74.2656767 L209.998287,77.7793582 L217.701745,77.7793582 L217.701745,80.4293962 L206.856997,80.4293962 L206.856997,66.0942076 L217.541724,66.0942076" id="Fill-30" fill="#1F2750"></path>
                <path d="M218.70194,68.7444849 L218.70194,66.0942076 L230.407133,66.0942076 L230.407133,68.7444849 L226.125182,68.7444849 L226.125182,80.4293962 L222.983892,80.4293962 L222.983892,68.7444849 L218.70194,68.7444849" id="Fill-31" fill="#1F2750"></path>
                <path d="M242.532293,80.4293962 L240.110981,70.6718288 L240.070916,70.6718288 L237.689908,80.4293962 L234.508553,80.4293962 L230.726938,66.0942076 L233.868466,66.0942076 L236.129279,75.851775 L236.169344,75.851775 L238.650276,66.0942076 L241.591718,66.0942076 L244.032824,75.9721442 L244.072889,75.9721442 L246.413832,66.0942076 L249.495024,66.0942076 L245.65355,80.4293962 L242.532293,80.4293962" id="Fill-32" fill="#1F2750"></path>
                <path d="M250.79523,70.3406339 C251.115512,69.4238653 251.575783,68.6238764 252.175805,67.9413851 C252.776304,67.2586545 253.513214,66.7235737 254.387014,66.3351854 C255.260575,65.9470365 256.244314,65.7527227 257.338233,65.7527227 C258.445268,65.7527227 259.432347,65.9470365 260.299469,66.3351854 C261.166352,66.7235737 261.900163,67.2586545 262.500423,67.9413851 C263.100683,68.6238764 263.560715,69.4238653 263.880997,70.3406339 C264.201279,71.2574025 264.361301,72.2512266 264.361301,73.3221062 C264.361301,74.3659445 264.201279,75.3399065 263.880997,76.2432742 C263.560715,77.1466418 263.100683,77.9332298 262.500423,78.6023201 C261.900163,79.2718891 261.166352,79.7971585 260.299469,80.1783677 C259.432347,80.5600555 258.445268,80.7507797 257.338233,80.7507797 C256.244314,80.7507797 255.260575,80.5600555 254.387014,80.1783677 C253.513214,79.7971585 252.776304,79.2718891 252.175805,78.6023201 C251.575783,77.9332298 251.115512,77.1466418 250.79523,76.2432742 C250.475187,75.3399065 250.315165,74.3659445 250.315165,73.3221062 C250.315165,72.2512266 250.475187,71.2574025 250.79523,70.3406339 L250.79523,70.3406339 Z M253.666558,75.0788273 C253.806547,75.6478891 254.030005,76.1597575 254.336932,76.6149113 C254.643621,77.0698257 255.043794,77.4347623 255.537453,77.7090032 C256.030634,77.9834834 256.631133,78.1206038 257.338233,78.1206038 C258.045095,78.1206038 258.645355,77.9834834 259.139014,77.7090032 C259.632434,77.4347623 260.032607,77.0698257 260.339534,76.6149113 C260.646222,76.1597575 260.86968,75.6478891 261.009669,75.0788273 C261.149897,74.5102441 261.219772,73.9241918 261.219772,73.3221062 C261.219772,72.6929794 261.149897,72.0841933 261.009669,71.4950301 C260.86968,70.9061062 260.646222,70.3805975 260.339534,69.9187433 C260.032607,69.4571284 259.632434,69.0890808 259.139014,68.8146006 C258.645355,68.540599 258.045095,68.403 257.338233,68.403 C256.631133,68.403 256.030634,68.540599 255.537453,68.8146006 C255.043794,69.0890808 254.643621,69.4571284 254.336932,69.9187433 C254.030005,70.3805975 253.806547,70.9061062 253.666558,71.4950301 C253.526569,72.0841933 253.456455,72.6929794 253.456455,73.3221062 C253.456455,73.9241918 253.526569,74.5102441 253.666558,75.0788273 L253.666558,75.0788273 Z" id="Fill-33" fill="#1F2750"></path>
                <path d="M274.205615,66.0942076 C274.84594,66.0942076 275.422591,66.1978257 275.936282,66.4055404 C276.449496,66.6130158 276.889734,66.8970681 277.256759,67.2586545 C277.623545,67.6200016 277.903762,68.038542 278.097409,68.5135578 C278.290341,68.9885737 278.387165,69.5006815 278.387165,70.0494025 C278.387165,70.8927052 278.21045,71.6223391 277.857257,72.2378257 C277.503588,72.8537908 276.926699,73.3221062 276.126352,73.6432504 L276.126352,73.6834532 C276.513171,73.7906609 276.833214,73.9543439 277.086721,74.1752203 C277.339989,74.3960967 277.546992,74.6571759 277.707014,74.958458 C277.867274,75.2595008 277.983653,75.5906957 278.057344,75.9522821 C278.13032,76.3136292 278.180401,76.6749762 278.207111,77.0363233 C278.220466,77.2641395 278.233821,77.5319192 278.247415,77.8394231 C278.260293,78.147645 278.283902,78.4618494 278.31729,78.7829937 C278.350439,79.1043772 278.404098,79.4087702 278.477312,79.6966513 C278.550526,79.9847718 278.660705,80.2286212 278.80761,80.4293962 L275.666081,80.4293962 C275.492705,79.9747211 275.385864,79.4324612 275.346038,78.8030951 C275.305973,78.1742076 275.245875,77.5718827 275.165984,76.9963597 C275.058905,76.2468637 274.832347,75.6981426 274.485593,75.3499572 C274.138602,75.0017718 273.571729,74.8277987 272.784976,74.8277987 L269.643447,74.8277987 L269.643447,80.4293962 L266.502157,80.4293962 L266.502157,66.0942076 L274.205615,66.0942076 L274.205615,66.0942076 Z M273.084986,72.5790713 C273.805203,72.5790713 274.345604,72.4187385 274.705713,72.097355 C275.06606,71.7759715 275.245875,71.2540523 275.245875,70.5313582 C275.245875,69.8354659 275.06606,69.3300586 274.705713,69.0153756 C274.345604,68.7009319 273.805203,68.5434707 273.084986,68.5434707 L269.643447,68.5434707 L269.643447,72.5790713 L273.084986,72.5790713 L273.084986,72.5790713 Z" id="Fill-34" fill="#1F2750"></path>
                <path d="M284.089756,66.0942076 L284.089756,72.0370507 L289.672152,66.0942076 L293.593756,66.0942076 L288.01136,71.7561094 L294.133919,80.4293962 L290.192043,80.4293962 L285.890298,73.984496 L284.089756,75.8115721 L284.089756,80.4293962 L280.948228,80.4293962 L280.948228,66.0942076 L284.089756,66.0942076" id="Fill-35" fill="#1F2750"></path>
            </g>
        </g>
    </g>
</svg>