<?xml version="1.0" encoding="UTF-8" standalone="no"?>
<svg width="340px" height="90px" viewBox="0 0 340 90" version="1.1" xmlns="http://www.w3.org/2000/svg" xmlns:xlink="http://www.w3.org/1999/xlink" xmlns:sketch="http://www.bohemiancoding.com/sketch/ns">
    <!-- Generator: Sketch 3.2.2 (9983) - http://www.bohemiancoding.com/sketch -->
    <title>AJMN_Landscape_Logo</title>
    <desc>Created with Sketch.</desc>
    <defs></defs>
    <g id="Symbols" stroke="none" stroke-width="1" fill="none" fill-rule="evenodd" sketch:type="MSPage">
        <g id="Desktop" sketch:type="MSArtboardGroup" transform="translate(-130.000000, -232.000000)">
            <g id="AJMN_Landscape_Logo" sketch:type="MSLayerGroup" transform="translate(130.000000, 232.000000)">
                <path d="M303.395308,24.6197727 C301.914075,24.6659091 300.747319,25.9165909 300.797453,27.4325 C300.833914,28.9279545 302.071314,30.1020455 303.554826,30.0643182 C305.038338,30.0240909 306.202815,28.7593182 306.15496,27.2618182 C306.113941,25.7897727 304.924397,24.6197727 303.484182,24.6197727 L303.395308,24.6197727 L303.395308,24.6197727 Z M313.583914,0.649318182 C312.212064,1.62340909 311.068097,3.83340909 311.074933,7.20840909 C311.086327,9.28340909 311.658311,11.7665909 313.239812,14.5475 C311.118231,17.475 310.728552,20.1740909 311.628686,22.7534091 C312.312332,24.7143182 312.660992,25.2236364 312.97319,26.3997727 C313.754826,29.385 312.886595,32.9672727 310.562198,38.4904545 C308.677614,42.9931818 306.227882,47.7018182 306.227882,53.4365909 C306.239276,54.7525 306.34866,56.0318182 306.530965,57.2886364 C306.749732,57.0715909 307.21689,56.6286364 307.786595,56.0995455 C307.5063,51.6070455 309.274665,47.0877273 311.446381,43.0293182 C314.604826,37.0997727 314.994504,31.0684091 314.386059,27.7672727 C316.603351,30.1668182 320.342895,33.7536364 322.526005,37.4322727 C323.264343,38.6718182 323.706434,39.8436364 323.813539,41.0365909 C323.916086,43.9447727 323.013673,46.0284091 321.252145,48.0740909 C319.759517,49.7986364 320.27681,51.3227273 320.338338,51.6211364 C320.452279,52.1120455 321.060724,53.9915909 321.489142,55.2218182 C323.143566,51.9456818 327.708043,50.1004545 329.777212,47.3772727 C330.251206,50.7313636 327.758177,53.9215909 325.907775,56.0597727 C325.465684,56.5422727 324.982574,57.0363636 324.435657,57.5702273 C320.930831,60.9584091 318.631501,63.2881818 317.412332,65.4522727 C317.100134,65.9320455 316.596515,67.0084091 316.343566,67.8375 C315.985791,68.8738636 315.530027,70.6329545 315.147185,73.7304545 C314.857775,75.5581818 314.529625,77.7404545 314.42252,78.7129545 C314.185523,80.9263636 313.526944,84.4393182 310.842493,85.4397727 C310.69437,85.5013636 310.550804,85.5359091 310.402681,85.5663636 L310.402681,85.5788636 C307.841287,86.1440909 305.218365,83.9745455 303.310992,80.0729545 C302.919035,80.3752273 302.490617,80.6436364 302.023458,80.8525 C304.605362,87.0259091 308.490751,89.8629545 311.895308,89.8629545 C314.474933,89.8629545 316.512198,88.5481818 317.163941,84.7134091 C317.503485,82.7797727 317.740483,80.6377273 317.954692,78.5577273 C318.059517,77.5577273 318.547185,71.9056818 319.447319,69.8556818 C320.557105,67.5570455 322.988606,65.3327273 326.61193,61.5581818 C328.849732,59.2134091 330.068901,57.2615909 330.704692,55.6897727 C332.814879,51.7836364 330.201072,42.4945455 329.695174,40.8245455 C329.679223,40.7647727 329.672386,40.7513636 329.638204,40.7513636 C329.58807,40.7513636 329.572118,40.7647727 329.533378,40.8329545 C329.52882,40.8488636 329.519705,40.8606818 329.512869,40.8722727 C328.580831,42.41 326.915013,43.8120455 325.365416,44.9588636 C326.238204,42.5397727 326.001206,40.7009091 325.654826,39.1538636 L325.654826,39.1420455 C325.632038,39.0534091 325.611528,38.9613636 325.58874,38.8734091 L325.584182,38.8829545 C324.016354,32.7195455 317.781501,27.2320455 314.971716,24.0693182 C311.318767,19.9715909 312.563003,17.3315909 313.909786,15.6543182 C314.162735,16.0302273 314.42252,16.43 314.718767,16.8313636 C319.686595,23.6436364 329.04571,34.4529545 333.949732,44.7504545 C335.196247,47.3493182 336.148794,49.9061364 336.672922,52.3422727 C338.605362,63.0065909 331.244772,73.8509091 320.208445,70.8020455 L320.203887,70.8020455 C320.133244,70.7852273 320.055764,70.7636364 319.991957,70.7411364 C319.693432,71.6893182 319.410858,73.2018182 319.132842,75.2677273 C320.805496,75.985 322.617158,76.4175 324.376408,76.4947727 L324.378686,76.4979545 C324.5063,76.4997727 324.638472,76.5036364 324.766086,76.5081818 C333.833512,76.6081818 340.929759,69.7431818 339.623995,55.3354545 C339.623995,55.3354545 339.079357,49.3418182 336.012064,43.0293182 C331.108043,31.9402273 322.031501,20.9684091 316.462064,13.8811364 C314.695979,11.6277273 313.656836,9.68022727 313.134987,7.99681818 C312.091287,4.72090909 312.754424,2.18227273 314.092091,1.07113636 C314.379223,0.825681818 314.739276,0.550909091 315.067426,0.386818182 C315.265684,0.280454545 315.190483,0.0438636364 315.046917,0.0179545455 C315.017292,0.0179545455 314.971716,0.01 314.923861,0.01 C314.73244,0.01 314.349598,0.0981818182 313.583914,0.649318182 L313.583914,0.649318182 Z M306.872788,19.9475 C305.396113,19.9875 304.233914,21.2447727 304.274933,22.7413636 C304.322788,24.245 305.551072,25.4340909 307.030027,25.3859091 C307.841287,25.3629545 308.538606,24.9711364 309.021716,24.4009091 L309.076408,24.3334091 C309.393164,26.4990909 308.369973,28.2293182 305.988606,30.2315909 C303.552547,32.3106818 297.853217,35.0220455 293.801475,38.2720455 C288.099866,42.8409091 286.753083,47.815 286.404424,51.8415909 C286.2563,53.6388636 286.516086,56.0013636 286.999196,57.9552273 C287.605362,60.4134091 288.482708,62.2947727 288.482708,62.2947727 C288.482708,62.2947727 288.530563,62.3731818 288.598928,62.5077273 C288.455362,65.1729545 288.719705,69.8277273 290.200938,73.3438636 C292.194906,77.8786364 295.777212,81.5913636 300.913673,80.4997727 C306.097989,79.265 306.679088,70.7247727 307.269303,64.4895455 C307.424263,63.4681818 307.579223,63.2868182 307.889142,63.0247727 C308.720912,62.3088636 310.742225,60.3854545 311.706166,59.5297727 C312.303217,58.9972727 312.820509,58.4661364 313.155496,57.7865909 C313.583914,56.9611364 313.358311,55.8613636 313.358311,55.8613636 L312.777212,51.7525 C312.633646,52.3365909 311.927212,53.1540909 310.935925,54.1638636 C309.903619,55.2218182 307.150804,57.6136364 306.900134,57.8768182 C306.651743,58.1318182 305.756166,58.7902273 305.373324,61.9268182 C304.37748,70.4563636 302.718499,74.4820455 299.74008,75.8431818 C298.956166,76.2181818 298.074263,76.3929545 297.09437,76.4175 C291.636595,76.3638636 290.200938,69.63 290.228284,65.9393182 C290.230563,65.7227273 290.235121,65.4995455 290.246515,65.2972727 C291.515818,67.0261364 293.386729,68.7411364 295.697453,68.3843182 C299.382306,67.8154545 298.23378,61.5209091 297.698257,60.0606818 C297.178686,58.5922727 295.747587,54.2102273 292.659786,54.4272727 C290.469839,54.5777273 289.451206,57.1756818 288.986327,59.3754545 C288.564745,57.6370455 288.339142,55.5988636 288.475871,54.0065909 C288.801743,50.1984091 290.089276,45.4418182 295.563003,40.7568182 C299.462064,37.4225 303.880697,35.0409091 306.334987,33.0759091 C307.898257,31.8320455 308.871314,30.4354545 309.415952,29.125 C309.260992,30.395 308.951072,31.7720455 308.349464,33.3768182 C306.082038,39.4220455 299.2,49.4034091 299.106568,63.5097727 C299.106568,67.8452273 299.50992,71.5945455 300.191287,74.8006818 C300.565013,74.5422727 300.913673,74.2040909 301.246381,73.7986364 C300.767828,71.505 300.492091,68.9659091 300.492091,66.2584091 C300.492091,52.1840909 307.326273,42.2156818 309.557239,36.1834091 C310.723995,33.0061364 310.753619,30.6895455 310.753619,28.4031818 C310.753619,25.5972727 310.13378,22.6686364 309.557239,21.5270455 C308.935121,20.4322727 308.160322,19.9475 307.002681,19.9475 L306.872788,19.9475 L306.872788,19.9475 Z M290.674933,62.7740909 C291.096515,61.4213636 291.857641,60.2075 293.186193,59.4470455 C295.362466,58.4161364 296.214745,61.0529545 296.214745,61.0529545 C296.062064,62.8379545 294.724397,63.775 293.234048,63.775 C292.358981,63.775 291.429223,63.4443182 290.674933,62.7740909 L290.674933,62.7740909 Z M319.410858,40.6065909 C319.151072,40.8872727 317.925067,42.2493182 316.744638,43.5579545 C315.691823,44.7238636 314.684584,45.8372727 314.465818,46.0825 C313.962198,46.6495455 313.697855,47.2068182 313.763941,47.5075 L314.067024,49.0302273 C314.149062,48.7472727 314.470375,48.2306818 314.825871,47.8304545 C315.07882,47.5495455 316.304826,46.1811364 317.487534,44.8845455 C318.535791,43.7163636 319.543029,42.6084091 319.766354,42.3495455 C320.274531,41.7979545 320.536595,41.2338636 320.468231,40.9390909 L320.156032,39.405 C320.08311,39.6947727 319.766354,40.2056818 319.410858,40.6065909 L319.410858,40.6065909 Z M298.204155,42.8797727 C298.204155,42.8797727 296.052949,44.4277273 295.184718,46.4777273 C294.653753,47.7318182 294.690214,49.0886364 294.98874,49.7447727 C295.296381,50.3997727 296.014209,51.0261364 296.946247,50.2722727 C297.600268,49.7447727 297.887399,49.0063636 298.028686,48.375 C298.115282,48.0004545 298.144906,47.7640909 298.144906,47.58 C298.144906,47.3493182 298.069705,47.155 297.853217,47.2068182 C297.231099,47.4156818 297.600268,48.2647727 297.155898,48.6756818 C296.818633,48.8840909 295.941287,48.7715909 295.768097,47.8956818 C295.597185,47.0186364 296.262601,45.8911364 296.866488,45.1445455 C297.472654,44.3959091 298.536863,43.4159091 298.536863,43.4159091 C298.536863,43.4159091 299.29571,42.7802273 299.038204,42.4659091 C299.02681,42.4477273 298.997185,42.4397727 298.96756,42.4397727 C298.746515,42.4397727 298.204155,42.8797727 298.204155,42.8797727 L298.204155,42.8797727 Z M314.864611,59.2536364 L318.317024,60.9025 L320.224397,56.7931818 L316.776542,55.1438636 L314.864611,59.2536364 L314.864611,59.2536364 Z M308.315282,63.6615909 C309.776005,67.1186364 311.986461,70.1177273 314.527346,72.3240909 C314.791689,70.5136364 315.07882,69.2381818 315.347721,68.3284091 C312.754424,66.4490909 310.897185,64.4172727 309.707641,62.3859091 L308.315282,63.6615909 L308.315282,63.6615909 Z M326.178954,66.545 L329.629088,68.2081818 L331.534182,64.0945455 L328.090885,62.4452273 L326.178954,66.545 L326.178954,66.545 Z M307.415147,75.1606818 L310.347989,77.6197727 L313.214745,74.1377273 L310.272788,71.6609091 L307.415147,75.1606818 L307.415147,75.1606818 Z M306.758847,81.2729545 L309.696247,83.7329545 L312.553887,80.2368182 L309.616488,77.7702273 L306.758847,81.2729545 L306.758847,81.2729545 Z M320.586729,78.6904545 C320.452279,78.7520455 320.406702,78.9786364 320.493298,79.2970455 C320.586729,79.6002273 321.099464,80.9263636 321.099464,80.9263636 C321.461796,81.9240909 322.07252,83.0786364 322.895174,83.6713636 C323.774799,84.2986364 324.228284,84.0781818 324.406032,84.0104545 C324.535925,83.9375 325.101072,83.5881818 324.900536,82.6806818 C324.684048,81.7188636 324.567828,81.4597727 324.39008,81.1088636 C324.219169,80.7577273 323.986729,80.54 323.847721,80.5993182 C323.765684,80.6138636 323.834048,80.93 323.834048,81.1286364 C323.827212,81.4784091 323.706434,81.7418182 323.414745,81.8702273 C323.159517,81.9818182 322.526005,82.2106818 322.040617,81.3393182 C321.641823,80.6377273 321.290885,79.7109091 321.142761,79.3331818 C321.021984,79.0365909 320.841957,78.6781818 320.655094,78.6781818 C320.634584,78.6781818 320.618633,78.6843182 320.586729,78.6904545 L320.586729,78.6904545 Z" id="Fill-1" fill="#D09D30" sketch:type="MSShapeGroup"></path>
                <path d="M56.9144504,61.4597727 L56.9144504,58 L47.5398391,58 L47.5398391,60.9711364 L52.3597721,60.9711364 L47.3928552,68.0915909 L47.3928552,71.5586364 L57.0179088,71.5586364 L57.0179088,68.5645455 L51.9612064,68.5645455 L56.9144504,61.4597727 L56.9144504,61.4597727 Z M89.926126,63.1020455 C89.727185,63.3447727 89.4423324,63.4559091 88.7757775,63.5197727 L87.4356032,63.5197727 L87.4356032,60.9711364 L88.4752011,60.9711364 C88.5574665,60.9711364 88.6392761,60.9895455 88.7238204,60.9895455 C89.2575201,61.0059091 89.4756032,61.0711364 89.7121448,61.2177273 C90.3003083,61.5559091 90.432252,62.4802273 89.926126,63.1020455 L89.926126,63.1020455 Z M92.8484853,66.6440909 C92.3375737,65.4415909 92.1541287,65.1975 91.6660054,64.9697727 C91.747815,64.95 91.8296247,64.9118182 91.9025469,64.8743182 C93.4197855,64.1756818 94.1533378,62.4263636 93.5745174,60.4840909 C93.1043968,58.8847727 91.8658579,58 89.5211796,58 L84.0162332,58 L84.0162332,71.5586364 L87.5069303,71.5586364 L87.5069303,66.4902273 L88.307252,66.4902273 C88.8710322,66.4902273 89.2117158,66.7356818 89.5059115,67.4559091 L89.6914075,67.8856818 L89.7925871,68.1302273 L91.1108847,71.5586364 L94.7326139,71.5586364 L93.0348928,67.1159091 C92.9710858,66.9434091 92.9227748,66.7981818 92.8484853,66.6440909 L92.8484853,66.6440909 Z M100.993673,65.9822727 L102.279155,61.6815909 L103.567828,65.9822727 L100.993673,65.9822727 L100.993673,65.9822727 Z M104.179008,58 L100.324155,58 L95.6860724,71.5586364 L99.1906702,71.5586364 L99.9713941,69.0745455 L104.443807,69.0745455 L105.203566,71.5586364 L108.910751,71.5586364 L104.179008,58 L104.179008,58 Z M37.2101743,65.9822727 L38.4904155,61.6815909 L39.7804558,65.9822727 L37.2101743,65.9822727 L37.2101743,65.9822727 Z M36.5705094,58 L31.9397185,71.5586364 L35.4336059,71.5586364 L36.2218499,69.0745455 L40.689933,69.0745455 L41.4508311,71.5586364 L45.1616622,71.5586364 L40.431059,58 L36.5705094,58 L36.5705094,58 Z M5.30987936,65.9822727 L6.5983244,61.6815909 L7.88654155,65.9822727 L5.30987936,65.9822727 L5.30987936,65.9822727 Z M4.67591153,58 L0.0471715818,71.5586364 L3.53923592,71.5586364 L4.32588472,69.0745455 L8.79601877,69.0745455 L9.55395442,71.5586364 L13.2615952,71.5586364 L8.53623324,58 L4.67591153,58 L4.67591153,58 Z M75.4870643,66.3302273 L80.0342225,66.3302273 L80.0342225,63.4322727 L75.4870643,63.4322727 L75.4870643,60.9711364 L80.7723324,60.9711364 L80.7723324,58 L72.0082172,58 L72.0082172,71.5586364 L81.2392627,71.5586364 L81.2392627,68.6777273 L75.4870643,68.6777273 L75.4870643,66.3302273 L75.4870643,66.3302273 Z M63.4551206,66.3302273 L68.0100268,66.3302273 L68.0100268,63.4322727 L63.4551206,63.4322727 L63.4551206,60.9711364 L68.7435791,60.9711364 L68.7435791,58 L59.9824263,58 L59.9824263,71.5586364 L69.207319,71.5586364 L69.207319,68.6777273 L63.4551206,68.6777273 L63.4551206,66.3302273 L63.4551206,66.3302273 Z M26.3816756,70.6988636 C26.3816756,72.77 25.6267024,73.5245455 23.9563271,73.0495455 C23.8565147,73.0297727 23.7747051,72.9981818 23.6776273,72.9554545 L22.8531501,75.8995455 C23.0391019,75.9915909 23.2241421,76.0652273 23.4230831,76.1443182 C27.3150804,77.5915909 29.8707775,75.4422727 29.8707775,71.6738636 L29.8707775,58 L26.3816756,58 L26.3816756,70.6988636 L26.3816756,70.6988636 Z M23.2772386,68.5304545 L18.9953351,68.5304545 L18.9953351,58 L15.4861796,58 L15.4861796,71.5586364 L23.2772386,71.5586364 L23.2772386,68.5304545 L23.2772386,68.5304545 Z" id="AL-JAZEERA" fill="#1F254A" sketch:type="MSShapeGroup"></path>
                <text id="-MEDIA-NETWORK" sketch:type="MSTextLayer" font-family="Helvetica Neue" font-size="18.9186275" font-weight="bold" fill="#1F254A">
                    <tspan x="108.910751" y="71.5300199"> MEDIA NETWORK</tspan>
                </text>
            </g>
        </g>
    </g>
</svg>