<?xml version="1.0" encoding="utf-8"?>
<!-- Generator: Adobe Illustrator 18.1.1, SVG Export Plug-In . SVG Version: 6.00 Build 0)  -->
<svg version="1.1" id="Capital_J_Logo" xmlns="http://www.w3.org/2000/svg" xmlns:xlink="http://www.w3.org/1999/xlink" x="0px"
	 y="0px" viewBox="0 0 50 50" enable-background="new 0 0 50 50" xml:space="preserve">
<path fill="#E24D25" d="M13.2,46.3c-0.5-0.9-0.8-2-0.7-3.1c0.1-3.4,1.6-5.1,4.5-5.1h0.3c2.7,0,4.2,1.4,4.4,4.3
	c0,0.7-0.4,1.6-1.1,2.7c-0.8,1.1-1.2,1.9-1.2,2.3c0,0.5,0.4,0.9,1.2,1.2c0.7,0.4,1.7,0.5,2.9,0.5c1.7,0,3-0.5,3.9-1.6
	c0.9-1.1,1.4-2.6,1.4-4.6V1.6c-1.3-0.2-2.6-0.3-3.9-0.3C11.7,1.3,0.9,12,0.9,25.4c0,9.1,5,17,12.5,21.1
	C13.3,46.4,13.3,46.4,13.2,46.3z"/>
<path fill="#E24D25" d="M38.8,5.6v28.9c0,4.9-1.5,8.9-4.4,12c-0.7,0.7-1.4,1.3-2.1,1.9c9.7-3.1,16.8-12.2,16.8-23
	C49.1,17.2,45.1,10,38.8,5.6z"/>
</svg>
