<?xml version="1.0" encoding="UTF-8" standalone="no"?>
<svg width="45px" height="45px" viewBox="0 0 45 45" version="1.1" xmlns="http://www.w3.org/2000/svg" xmlns:xlink="http://www.w3.org/1999/xlink" xmlns:sketch="http://www.bohemiancoding.com/sketch/ns">
    <!-- Generator: Sketch 3.2.2 (9983) - http://www.bohemiancoding.com/sketch -->
    <title>Clock</title>
    <desc>Created with Sketch.</desc>
    <defs></defs>
    <g id="Icons" stroke="none" stroke-width="1" fill="none" fill-rule="evenodd" sketch:type="MSPage">
        <g id="Clock" sketch:type="MSLayerGroup" fill="#7F7F7F">
            <path d="M22.321,0.976 C10.171,0.976 0.321,10.825 0.321,22.976 C0.321,35.126 10.171,44.976 22.321,44.976 C34.472,44.976 44.321,35.126 44.321,22.976 C44.321,10.825 34.472,0.976 22.321,0.976 L22.321,0.976 Z M22.321,43.023 C11.25,43.023 2.274,34.048 2.274,22.976 C2.274,11.904 11.25,2.928 22.321,2.928 C33.393,2.928 42.369,11.904 42.369,22.976 C42.369,34.048 33.393,43.023 22.321,43.023 L22.321,43.023 Z" id="Fill-38" sketch:type="MSShapeGroup"></path>
            <path d="M23.321,23.039 L23.321,6.816 L21.321,6.816 L21.321,23.83 L21.359,23.83 L21.321,23.868 L33.086,35.632 L34.5,34.218 L23.321,23.039" id="Fill-39" sketch:type="MSShapeGroup"></path>
        </g>
    </g>
</svg>