<?xml version="1.0" encoding="UTF-8" standalone="no"?>
<svg width="50px" height="49px" viewBox="0 0 50 49" version="1.1" xmlns="http://www.w3.org/2000/svg" xmlns:xlink="http://www.w3.org/1999/xlink" xmlns:sketch="http://www.bohemiancoding.com/sketch/ns">
    <!-- Generator: Sketch 3.2.2 (9983) - http://www.bohemiancoding.com/sketch -->
    <title>Cog</title>
    <desc>Created with Sketch.</desc>
    <defs></defs>
    <g id="Icons" stroke="none" stroke-width="1" fill="none" fill-rule="evenodd" sketch:type="MSPage">
        <path d="M49.025,27.83 L49.025,21.821 L41.842,18.828 C41.643,18.265 41.432,17.718 41.173,17.185 L44.072,9.966 L39.823,5.718 L32.669,8.664 C32.124,8.399 31.566,8.177 30.991,7.971 L27.945,0.836 L21.936,0.836 L18.967,7.948 C18.368,8.159 17.793,8.382 17.224,8.653 L10.082,5.783 L5.833,10.032 L8.744,17.109 C8.462,17.69 8.234,18.282 8.016,18.893 L0.951,21.915 L0.951,27.924 L8.022,30.87 C8.24,31.481 8.474,32.074 8.756,32.655 L5.898,39.779 L10.147,44.027 L17.242,41.105 C17.811,41.375 18.392,41.592 18.991,41.797 L22.03,48.91 L28.04,48.91 L31.015,41.762 C31.584,41.551 32.147,41.328 32.687,41.07 L39.894,43.957 L44.143,39.708 L41.185,32.537 C41.437,31.997 41.643,31.451 41.842,30.894 L49.025,27.83 L49.025,27.83 Z M24.941,33.887 C19.964,33.887 15.927,29.849 15.927,24.873 C15.927,19.896 19.964,15.859 24.941,15.859 C29.918,15.859 33.955,19.896 33.955,24.873 C33.955,29.849 29.918,33.887 24.941,33.887 L24.941,33.887 Z" id="Cog" fill="#7F7F7F" sketch:type="MSShapeGroup"></path>
    </g>
</svg>