<?xml version="1.0" encoding="UTF-8" standalone="no"?>
<svg width="13px" height="27px" viewBox="0 0 13 27" version="1.1" xmlns="http://www.w3.org/2000/svg" xmlns:xlink="http://www.w3.org/1999/xlink" xmlns:sketch="http://www.bohemiancoding.com/sketch/ns">
    <!-- Generator: Sketch 3.2.2 (9983) - http://www.bohemiancoding.com/sketch -->
    <title>Facebook</title>
    <desc>Created with Sketch.</desc>
    <defs></defs>
    <g id="Icons" stroke="none" stroke-width="1" fill="none" fill-rule="evenodd" sketch:type="MSPage">
        <path d="M8.356,9.234 L8.356,7.051 C8.356,6.724 8.371,6.47 8.402,6.291 C8.432,6.111 8.502,5.935 8.609,5.761 C8.717,5.587 8.891,5.466 9.132,5.4 C9.373,5.333 9.693,5.3 10.093,5.3 L12.275,5.3 L12.275,0.935 L8.786,0.935 C6.768,0.935 5.318,1.414 4.437,2.372 C3.556,3.33 3.116,4.741 3.116,6.606 L3.116,9.234 L0.503,9.234 L0.503,13.598 L3.116,13.598 L3.116,26.26 L8.356,26.26 L8.356,13.598 L11.844,13.598 L12.305,9.234 L8.356,9.234" id="Facebook" fill="#7F7F7F" sketch:type="MSShapeGroup"></path>
    </g>
</svg>