<?xml version="1.0" encoding="UTF-8" standalone="no"?>
<svg width="28px" height="27px" viewBox="0 0 28 27" version="1.1" xmlns="http://www.w3.org/2000/svg" xmlns:xlink="http://www.w3.org/1999/xlink" xmlns:sketch="http://www.bohemiancoding.com/sketch/ns">
    <!-- Generator: Sketch 3.2.2 (9983) - http://www.bohemiancoding.com/sketch -->
    <title>Google Plus</title>
    <desc>Created with Sketch.</desc>
    <defs></defs>
    <g id="Icons" stroke="none" stroke-width="1" fill="none" fill-rule="evenodd" sketch:type="MSPage">
        <g id="Google-Plus" sketch:type="MSLayerGroup" fill="#7F7F7F">
            <path d="M23.011,4.528 L23.011,0.497 L20.995,0.497 L20.995,4.528 L16.964,4.528 L16.964,6.543 L20.995,6.543 L20.995,10.575 L23.011,10.575 L23.011,6.543 L27.042,6.543 L27.042,4.528 L23.011,4.528" id="Fill-93" sketch:type="MSShapeGroup"></path>
            <path d="M14.2,23.282 C13.912,23.775 13.521,24.161 13.027,24.439 C12.534,24.717 12.007,24.922 11.445,25.053 C10.883,25.185 10.293,25.25 9.673,25.25 C9.001,25.25 8.335,25.171 7.673,25.014 C7.012,24.857 6.38,24.618 5.776,24.298 C5.173,23.978 4.684,23.537 4.312,22.975 C3.939,22.413 3.753,21.775 3.753,21.061 C3.753,20.432 3.895,19.87 4.178,19.377 C4.462,18.883 4.824,18.489 5.265,18.196 C5.705,17.902 6.22,17.66 6.808,17.472 C7.396,17.282 7.962,17.151 8.508,17.078 C9.054,17.004 9.611,16.968 10.177,16.968 C10.524,16.968 10.786,16.978 10.965,16.999 C11.028,17.041 11.188,17.151 11.445,17.33 C11.702,17.508 11.876,17.629 11.965,17.692 C12.054,17.755 12.217,17.876 12.453,18.054 C12.689,18.233 12.857,18.367 12.957,18.456 C13.056,18.545 13.201,18.679 13.39,18.857 C13.578,19.036 13.718,19.19 13.807,19.322 C13.896,19.453 14.006,19.613 14.137,19.802 C14.269,19.991 14.361,20.172 14.413,20.345 C14.465,20.519 14.515,20.707 14.563,20.912 C14.61,21.117 14.633,21.329 14.633,21.55 C14.633,22.211 14.489,22.789 14.2,23.282 L14.2,23.282 Z M9.846,11.457 C9.311,11.457 8.802,11.32 8.319,11.047 C7.836,10.774 7.427,10.42 7.091,9.984 C6.755,9.549 6.461,9.058 6.209,8.512 C5.957,7.966 5.771,7.42 5.65,6.874 C5.529,6.329 5.469,5.809 5.469,5.315 C5.469,4.308 5.737,3.442 6.272,2.717 C6.807,1.993 7.563,1.631 8.54,1.631 C9.232,1.631 9.86,1.846 10.421,2.276 C10.983,2.707 11.424,3.252 11.744,3.914 C12.064,4.575 12.311,5.26 12.484,5.969 C12.657,6.677 12.744,7.346 12.744,7.976 C12.744,9.026 12.516,9.869 12.059,10.504 C11.602,11.139 10.865,11.457 9.846,11.457 L9.846,11.457 Z M15.917,17.18 C15.639,16.807 15.332,16.461 14.996,16.141 C14.66,15.821 14.324,15.53 13.988,15.267 C13.652,15.005 13.345,14.753 13.067,14.511 C12.789,14.27 12.563,14.018 12.39,13.756 C12.217,13.493 12.13,13.225 12.13,12.952 C12.13,12.574 12.251,12.22 12.492,11.89 C12.734,11.559 13.028,11.239 13.374,10.929 C13.72,10.619 14.067,10.281 14.413,9.913 C14.759,9.546 15.053,9.06 15.295,8.457 C15.536,7.853 15.657,7.163 15.657,6.386 C15.657,5.462 15.452,4.575 15.043,3.725 C14.633,2.875 14.056,2.213 13.311,1.741 L15.436,1.741 L17.562,0.497 L10.681,0.497 C9.705,0.497 8.723,0.602 7.737,0.812 C6.278,1.138 5.049,1.88 4.052,3.04 C3.055,4.2 2.556,5.515 2.556,6.985 C2.556,8.538 3.115,9.83 4.233,10.858 C5.351,11.887 6.692,12.401 8.256,12.401 C8.571,12.401 8.939,12.375 9.359,12.323 C9.338,12.406 9.301,12.519 9.249,12.661 C9.196,12.803 9.154,12.916 9.122,13 C9.091,13.084 9.065,13.186 9.044,13.307 C9.023,13.427 9.012,13.551 9.012,13.677 C9.012,14.37 9.348,15.152 10.02,16.023 C9.222,16.044 8.435,16.115 7.658,16.236 C6.881,16.357 6.068,16.546 5.217,16.803 C4.367,17.06 3.606,17.433 2.934,17.921 C2.262,18.409 1.759,18.989 1.423,19.661 C1.034,20.438 0.84,21.146 0.84,21.787 C0.84,22.49 0.997,23.128 1.312,23.7 C1.627,24.272 2.031,24.739 2.525,25.101 C3.018,25.463 3.588,25.768 4.233,26.015 C4.879,26.261 5.519,26.437 6.154,26.542 C6.789,26.647 7.417,26.699 8.036,26.699 C10.849,26.699 13.054,26.012 14.649,24.637 C16.119,23.356 16.854,21.876 16.854,20.196 C16.854,19.597 16.767,19.039 16.594,18.519 C16.421,17.999 16.195,17.553 15.917,17.18 L15.917,17.18 Z" id="Fill-94" sketch:type="MSShapeGroup"></path>
        </g>
    </g>
</svg>