<?xml version="1.0" encoding="UTF-8" standalone="no"?>
<svg width="33px" height="44px" viewBox="0 0 33 44" version="1.1" xmlns="http://www.w3.org/2000/svg" xmlns:xlink="http://www.w3.org/1999/xlink" xmlns:sketch="http://www.bohemiancoding.com/sketch/ns">
    <!-- Generator: Sketch 3.2.2 (9983) - http://www.bohemiancoding.com/sketch -->
    <title>Location Pin</title>
    <desc>Created with Sketch.</desc>
    <defs></defs>
    <g id="Icons" stroke="none" stroke-width="1" fill="none" fill-rule="evenodd" sketch:type="MSPage">
        <path d="M30.226,25.663 C31.886,23.134 32.855,20.118 32.855,16.875 C32.855,7.969 25.576,0.75 16.597,0.75 C7.617,0.75 0.338,7.969 0.338,16.875 C0.338,21.06 2.295,24.549 4.582,27.738 L16.64,43.75 L30.226,25.663 L30.226,25.663 Z M16.554,11.645 C19.466,11.645 21.827,13.987 21.827,16.875 C21.827,19.763 19.466,22.105 16.554,22.105 C13.642,22.105 11.281,19.763 11.281,16.875 C11.281,13.987 13.642,11.645 16.554,11.645 L16.554,11.645 Z" id="Location-Pin" fill="#7F7F7F" sketch:type="MSShapeGroup"></path>
    </g>
</svg>