<?xml version="1.0" encoding="UTF-8" standalone="no"?>
<svg width="44px" height="45px" viewBox="0 0 44 45" version="1.1" xmlns="http://www.w3.org/2000/svg" xmlns:xlink="http://www.w3.org/1999/xlink" xmlns:sketch="http://www.bohemiancoding.com/sketch/ns">
    <!-- Generator: Sketch 3.2.2 (9983) - http://www.bohemiancoding.com/sketch -->
    <title>More</title>
    <desc>Created with Sketch.</desc>
    <defs></defs>
    <g id="Icons" stroke="none" stroke-width="1" fill="none" fill-rule="evenodd" sketch:type="MSPage">
        <g id="More" sketch:type="MSLayerGroup" transform="translate(-1.000000, 0.000000)" fill="#7F7F7F">
            <path d="M22.988,0.454 C10.838,0.454 0.988,10.304 0.988,22.454 C0.988,34.604 10.838,44.454 22.988,44.454 C35.138,44.454 44.988,34.604 44.988,22.454 C44.988,10.304 35.138,0.454 22.988,0.454 L22.988,0.454 Z M22.988,42.501 C11.916,42.501 2.941,33.526 2.941,22.454 C2.941,11.382 11.916,2.406 22.988,2.406 C34.06,2.406 43.035,11.382 43.035,22.454 C43.035,33.526 34.06,42.501 22.988,42.501 L22.988,42.501 Z" id="Fill-31" sketch:type="MSShapeGroup"></path>
            <path d="M18.988,19.454 C18.988,20.558 18.093,21.454 16.988,21.454 C15.883,21.454 14.988,20.558 14.988,19.454 C14.988,18.349 15.883,17.454 16.988,17.454 C18.093,17.454 18.988,18.349 18.988,19.454" id="Fill-32" sketch:type="MSShapeGroup"></path>
            <path d="M24.988,19.454 C24.988,20.558 24.093,21.454 22.988,21.454 C21.883,21.454 20.988,20.558 20.988,19.454 C20.988,18.349 21.883,17.454 22.988,17.454 C24.093,17.454 24.988,18.349 24.988,19.454" id="Fill-33" sketch:type="MSShapeGroup"></path>
            <path d="M30.988,19.454 C30.988,20.558 30.093,21.454 28.988,21.454 C27.883,21.454 26.988,20.558 26.988,19.454 C26.988,18.349 27.883,17.454 28.988,17.454 C30.093,17.454 30.988,18.349 30.988,19.454" id="Fill-34" sketch:type="MSShapeGroup"></path>
            <path d="M18.988,25.454 C18.988,26.558 18.093,27.454 16.988,27.454 C15.883,27.454 14.988,26.558 14.988,25.454 C14.988,24.349 15.883,23.454 16.988,23.454 C18.093,23.454 18.988,24.349 18.988,25.454" id="Fill-35" sketch:type="MSShapeGroup"></path>
            <path d="M24.988,25.454 C24.988,26.558 24.093,27.454 22.988,27.454 C21.883,27.454 20.988,26.558 20.988,25.454 C20.988,24.349 21.883,23.454 22.988,23.454 C24.093,23.454 24.988,24.349 24.988,25.454" id="Fill-36" sketch:type="MSShapeGroup"></path>
            <path d="M30.988,25.454 C30.988,26.558 30.093,27.454 28.988,27.454 C27.883,27.454 26.988,26.558 26.988,25.454 C26.988,24.349 27.883,23.454 28.988,23.454 C30.093,23.454 30.988,24.349 30.988,25.454" id="Fill-37" sketch:type="MSShapeGroup"></path>
        </g>
    </g>
</svg>