<?xml version="1.0" encoding="UTF-8" standalone="no"?>
<svg width="45px" height="45px" viewBox="0 0 45 45" version="1.1" xmlns="http://www.w3.org/2000/svg" xmlns:xlink="http://www.w3.org/1999/xlink" xmlns:sketch="http://www.bohemiancoding.com/sketch/ns">
    <!-- Generator: Sketch 3.2.2 (9983) - http://www.bohemiancoding.com/sketch -->
    <title>Play</title>
    <desc>Created with Sketch.</desc>
    <defs></defs>
    <g id="Icons" stroke="none" stroke-width="1" fill="none" fill-rule="evenodd" sketch:type="MSPage">
        <g id="Play" sketch:type="MSLayerGroup" fill="#7F7F7F">
            <path d="M22.488,0.25 C10.338,0.25 0.488,10.1 0.488,22.25 C0.488,34.4 10.338,44.25 22.488,44.25 C34.638,44.25 44.488,34.4 44.488,22.25 C44.488,10.1 34.638,0.25 22.488,0.25 L22.488,0.25 Z M22.488,42.297 C11.416,42.297 2.441,33.322 2.441,22.25 C2.441,11.178 11.416,2.203 22.488,2.203 C33.56,2.203 42.535,11.178 42.535,22.25 C42.535,33.322 33.56,42.297 22.488,42.297 L22.488,42.297 Z" id="Fill-2" sketch:type="MSShapeGroup"></path>
            <path d="M18.008,14.505 L18.008,29.995 L30.968,22.25 L18.008,14.505" id="Fill-3" sketch:type="MSShapeGroup"></path>
        </g>
    </g>
</svg>