<?xml version="1.0" encoding="UTF-8" standalone="no"?>
<svg width="45px" height="45px" viewBox="0 0 45 45" version="1.1" xmlns="http://www.w3.org/2000/svg" xmlns:xlink="http://www.w3.org/1999/xlink" xmlns:sketch="http://www.bohemiancoding.com/sketch/ns">
    <!-- Generator: Sketch 3.2.2 (9983) - http://www.bohemiancoding.com/sketch -->
    <title>Plus</title>
    <desc>Created with Sketch.</desc>
    <defs></defs>
    <g id="Icons" stroke="none" stroke-width="1" fill="none" fill-rule="evenodd" sketch:type="MSPage">
        <g id="Plus" sketch:type="MSLayerGroup" fill="#7F7F7F">
            <path d="M22.078,0.976 C9.928,0.976 0.078,10.825 0.078,22.976 C0.078,35.126 9.928,44.976 22.078,44.976 C34.229,44.976 44.078,35.126 44.078,22.976 C44.078,10.825 34.229,0.976 22.078,0.976 L22.078,0.976 Z M22.078,43.023 C11.006,43.023 2.031,34.048 2.031,22.976 C2.031,11.904 11.006,2.928 22.078,2.928 C33.15,2.928 42.126,11.904 42.126,22.976 C42.126,34.048 33.15,43.023 22.078,43.023 L22.078,43.023 Z" id="Fill-24" sketch:type="MSShapeGroup"></path>
            <path d="M23.078,10.976 L21.078,10.976 L21.078,21.976 L10.078,21.976 L10.078,23.976 L21.078,23.976 L21.078,34.976 L23.078,34.976 L23.078,23.976 L34.078,23.976 L34.078,21.976 L23.078,21.976 L23.078,10.976" id="Fill-25" sketch:type="MSShapeGroup"></path>
        </g>
    </g>
</svg>