<?xml version="1.0" encoding="UTF-8" standalone="no"?>
<svg width="45px" height="39px" viewBox="0 0 45 39" version="1.1" xmlns="http://www.w3.org/2000/svg" xmlns:xlink="http://www.w3.org/1999/xlink" xmlns:sketch="http://www.bohemiancoding.com/sketch/ns">
    <!-- Generator: Sketch 3.2.2 (9983) - http://www.bohemiancoding.com/sketch -->
    <title>Printer</title>
    <desc>Created with Sketch.</desc>
    <defs></defs>
    <g id="Icons" stroke="none" stroke-width="1" fill="none" fill-rule="evenodd" sketch:type="MSPage">
        <g id="Printer" sketch:type="MSLayerGroup" fill="#7F7F7F">
            <path d="M13.902,22.273 L30.698,22.273 L30.698,23.597 L13.902,23.597 L13.902,22.273 Z" id="Fill-111" sketch:type="MSShapeGroup"></path>
            <path d="M13.902,27.134 L30.698,27.134 L30.698,28.461 L13.902,28.461 L13.902,27.134 Z" id="Fill-112" sketch:type="MSShapeGroup"></path>
            <path d="M13.902,31.995 L30.698,31.995 L30.698,33.322 L13.902,33.322 L13.902,31.995 Z" id="Fill-113" sketch:type="MSShapeGroup"></path>
            <path d="M44.4,9.695 L35.117,9.695 L35.117,0.415 L9.483,0.415 L9.483,9.695 L0.201,9.695 L0.201,30.91 L9.132,30.91 L9.132,38.704 L35.117,38.704 L35.117,30.91 L44.4,30.91 L44.4,9.695 L44.4,9.695 Z M11.251,2.182 L33.351,2.182 L33.351,9.695 L11.251,9.695 L11.251,2.182 Z M11.185,18.054 L33.378,18.054 L33.378,36.937 L11.185,36.937 L11.185,18.054 Z" id="Fill-114" sketch:type="MSShapeGroup"></path>
        </g>
    </g>
</svg>