<?xml version="1.0" encoding="UTF-8" standalone="no"?>
<svg width="45px" height="45px" viewBox="0 0 45 45" version="1.1" xmlns="http://www.w3.org/2000/svg" xmlns:xlink="http://www.w3.org/1999/xlink" xmlns:sketch="http://www.bohemiancoding.com/sketch/ns">
    <!-- Generator: Sketch 3.2.2 (9983) - http://www.bohemiancoding.com/sketch -->
    <title>Rewind</title>
    <desc>Created with Sketch.</desc>
    <defs></defs>
    <g id="Icons" stroke="none" stroke-width="1" fill="none" fill-rule="evenodd" sketch:type="MSPage">
        <g id="Rewind" sketch:type="MSLayerGroup" fill="#7F7F7F">
            <path d="M22.321,0.25 C10.171,0.25 0.321,10.1 0.321,22.25 C0.321,34.4 10.171,44.25 22.321,44.25 C34.472,44.25 44.321,34.4 44.321,22.25 C44.321,10.1 34.472,0.25 22.321,0.25 L22.321,0.25 Z M22.321,42.297 C11.25,42.297 2.274,33.322 2.274,22.25 C2.274,11.178 11.25,2.203 22.321,2.203 C33.393,2.203 42.369,11.178 42.369,22.25 C42.369,33.322 33.393,42.297 22.321,42.297 L22.321,42.297 Z" id="Fill-13" sketch:type="MSShapeGroup"></path>
            <path d="M10.903,22.25 L23.864,29.995 L23.864,25.289 L31.739,29.995 L31.739,14.505 L23.864,19.211 L23.864,14.505 L10.903,22.25" id="Fill-14" sketch:type="MSShapeGroup"></path>
        </g>
    </g>
</svg>