<?xml version="1.0" encoding="UTF-8" standalone="no"?>
<svg width="38px" height="37px" viewBox="0 0 38 37" version="1.1" xmlns="http://www.w3.org/2000/svg" xmlns:xlink="http://www.w3.org/1999/xlink" xmlns:sketch="http://www.bohemiancoding.com/sketch/ns">
    <!-- Generator: Sketch 3.2.2 (9983) - http://www.bohemiancoding.com/sketch -->
    <title>Search</title>
    <desc>Created with Sketch.</desc>
    <defs></defs>
    <g id="Icons" stroke="none" stroke-width="1" fill="none" fill-rule="evenodd" sketch:type="MSPage">
        <path d="M37.097,34.668 L24.784,22.355 C29.113,16.943 28.776,9.028 23.761,4.013 C18.378,-1.37 9.65,-1.37 4.266,4.013 C-1.117,9.396 -1.117,18.124 4.266,23.507 C9.281,28.522 17.196,28.86 22.608,24.531 L34.921,36.844 L37.097,34.668 L37.097,34.668 Z M6.493,21.28 C2.34,17.127 2.34,10.393 6.493,6.24 C10.647,2.087 17.38,2.087 21.534,6.24 C25.687,10.393 25.687,17.127 21.534,21.28 C17.38,25.434 10.647,25.434 6.493,21.28 L6.493,21.28 Z" id="Search" fill="#7F7F7F" sketch:type="MSShapeGroup"></path>
    </g>
</svg>