<?xml version="1.0" encoding="UTF-8" standalone="no"?>
<svg width="32px" height="26px" viewBox="0 0 32 26" version="1.1" xmlns="http://www.w3.org/2000/svg" xmlns:xlink="http://www.w3.org/1999/xlink" xmlns:sketch="http://www.bohemiancoding.com/sketch/ns">
    <!-- Generator: Sketch 3.2.2 (9983) - http://www.bohemiancoding.com/sketch -->
    <title>Twitter</title>
    <desc>Created with Sketch.</desc>
    <defs></defs>
    <g id="Icons" stroke="none" stroke-width="1" fill="none" fill-rule="evenodd" sketch:type="MSPage">
        <path d="M31.447,3.092 C30.24,3.612 29.032,3.936 27.825,4.067 C29.188,3.249 30.11,2.093 30.591,0.6 C29.344,1.339 28.013,1.846 26.597,2.119 C25.351,0.794 23.819,0.132 22,0.132 C20.26,0.132 18.777,0.745 17.549,1.972 C16.322,3.199 15.709,4.683 15.709,6.423 C15.709,6.89 15.761,7.371 15.865,7.864 C13.294,7.735 10.881,7.089 8.628,5.926 C6.375,4.764 4.463,3.216 2.892,1.281 C2.321,2.254 2.035,3.313 2.035,4.456 C2.035,5.533 2.288,6.533 2.795,7.455 C3.301,8.377 3.983,9.124 4.84,9.695 C3.827,9.656 2.879,9.39 1.996,8.897 L1.996,8.974 C1.996,10.494 2.473,11.828 3.428,12.977 C4.382,14.127 5.587,14.85 7.041,15.149 C6.496,15.292 5.944,15.363 5.385,15.363 C5.022,15.363 4.626,15.331 4.197,15.266 C4.6,16.526 5.34,17.561 6.418,18.373 C7.495,19.185 8.716,19.603 10.08,19.629 C7.794,21.421 5.191,22.317 2.269,22.317 C1.71,22.317 1.204,22.292 0.75,22.239 C3.671,24.122 6.892,25.063 10.411,25.063 C12.644,25.063 14.742,24.71 16.702,24.002 C18.663,23.294 20.338,22.346 21.728,21.158 C23.117,19.97 24.315,18.603 25.321,17.058 C26.327,15.513 27.077,13.899 27.571,12.218 C28.064,10.536 28.311,8.851 28.311,7.163 C28.311,6.799 28.305,6.527 28.291,6.345 C29.525,5.449 30.577,4.365 31.447,3.092" id="Twitter" fill="#7F7F7F" sketch:type="MSShapeGroup"></path>
    </g>
</svg>